<svg width="100" height="100" viewBox="0 0 100 100" fill="none" xmlns="http://www.w3.org/2000/svg">
<rect width="100" height="100" fill="#F5F5F5"/>
<g id="wikipedia-globe-pieces">
<g id="4/6">
<path id="path4599" d="M85.8849 79.6154C85.9233 79.6287 85.8802 79.7205 85.643 79.9835C85.0106 80.6849 84.6935 80.9745 84.6935 80.9745C84.6935 80.9745 84.1691 81.504 84.2178 81.7025C82.1146 83.7241 79.8366 85.5606 77.4041 87.1873C77.5461 87.0195 77.6692 86.8422 77.6097 86.7949C77.4842 86.6976 76.9969 87.0457 76.9969 87.0457C76.9969 87.0457 76.6002 87.3634 76.2329 87.5351C76.2138 87.544 76.1953 87.5535 76.1764 87.5614C76.1833 87.5589 76.1898 87.5579 76.1966 87.5553C76.1856 87.5602 76.1772 87.5629 76.1664 87.5675C76.1699 87.566 76.1728 87.563 76.1764 87.5614C76.152 87.5704 76.1285 87.5736 76.1039 87.5816C76.0112 87.6146 75.9177 87.6489 75.8439 87.6443C75.7953 87.6408 75.7668 87.625 75.7531 87.5998C75.7121 87.5242 75.8099 87.3646 75.9346 87.2074C76.1013 86.9984 76.3156 86.7928 76.3156 86.7928C76.3156 86.7928 77.2031 85.7915 78.0512 85.638C78.263 85.5997 78.4313 85.5569 78.5713 85.5106C78.9914 85.372 79.1559 85.195 79.4684 84.9545C79.8851 84.6338 79.9538 84.2853 80.8029 82.7379C80.8336 82.6812 80.8669 82.6246 80.8977 82.566L80.8997 82.564C81.9822 81.957 82.3664 81.7699 82.6233 81.6175C83.7833 80.925 85.1664 80.0795 85.5302 79.7912C85.5302 79.7912 85.821 79.5934 85.8849 79.6154Z" fill="#DCDCDD"/>
</g>
<g id="4/5">
<path id="path4591" d="M99.226 50.8691C98.045 62.6419 92.7761 73.1988 84.8548 81.0877C84.8607 80.9857 85.3064 80.5821 85.3064 80.5821C85.3064 80.5821 85.8812 79.9668 86.2538 79.4759C86.6274 78.986 86.3889 79.0148 86.3889 79.0148C86.3889 79.0148 86.2067 78.9681 85.4213 79.4678C84.6359 79.9675 84.0807 80.3132 84.0807 80.3132C84.0807 80.3132 82.3917 81.2832 81.319 81.9088C81.3106 81.9137 81.2913 81.9241 81.2827 81.9291C81.4751 81.6277 81.6771 81.3362 81.8814 81.0554V81.0533C82.4976 80.2081 83.1436 79.4666 83.6655 78.8833C84.5116 77.936 85.5261 76.3998 85.5261 76.3998C85.5261 76.3998 86.1534 75.3229 86.1793 74.8203C86.1793 74.8187 86.1792 74.8178 86.1793 74.8163C86.1831 74.7453 86.1725 74.6877 86.149 74.6443V74.6423C86.0215 74.415 85.4589 74.6594 84.496 75.3804C83.7397 75.9477 83.1579 76.3001 82.6656 76.5514C82.4242 76.656 82.1856 76.7385 81.9701 76.7617C80.9572 76.8759 80.9993 75.8308 81.067 75.3724C81.1356 74.91 81.3738 73.8519 82.1092 73.4329C82.8446 73.0138 83.8731 73.0297 84.5948 72.9313C85.3184 72.833 85.6491 72.6259 85.6491 72.6259C85.6491 72.6259 86.8309 71.8726 87.6085 70.6056C88.388 69.3366 89.0823 67.2876 89.1627 65.2543C89.193 64.5058 89.0924 63.9243 88.939 63.4665H88.943C90.8815 61.9182 92.7369 59.9536 92.7369 59.9536C92.7369 59.9536 93.9688 58.7141 94.5875 57.636C95.1709 56.6247 94.6137 58.5096 94.6137 58.5096C94.6137 58.5096 94.3011 59.9994 94.8032 60.5522C95.2022 60.99 96.3352 59.7716 96.3352 59.7716C96.3352 59.7716 97.0091 58.9964 97.2807 57.7452C97.6807 55.9007 97.4621 55.5327 97.4621 55.5327C97.4621 55.5327 97.2214 55.1499 97.3714 54.6954C97.5181 54.2587 98.4374 51.8873 99.226 50.8691Z" fill="#DCDCDD"/>
<path id="path4837" d="M94.5334 63.895C94.3932 64.0228 94.1844 64.0553 94.0294 64.1674C93.5382 64.5206 93.0244 65.1137 92.6714 65.6066C92.389 66.002 92.1478 66.4358 91.8958 66.8539C91.786 67.0369 91.7615 67.2493 91.6242 67.3969V67.4756C91.9625 67.4185 92.1615 67.1982 92.4008 67.0477C93.047 66.6463 93.6255 66.2794 94.2226 65.8427C94.5118 65.6302 94.7276 65.3016 95.0364 65.101C95.0649 64.6376 95.159 64.2717 94.9609 63.9333C94.8394 63.9077 94.7021 63.893 94.5334 63.895ZM94.0687 65.2947C93.8343 65.4679 93.6078 65.7108 93.3705 65.88C93.1666 66.0217 92.9214 66.0984 92.7498 66.2686H92.7106C92.8381 65.8673 93.5127 65.1787 93.8343 64.9465C94.001 64.8245 94.2099 64.7921 94.3795 64.6721H94.5334C94.5687 64.7173 94.5668 64.7154 94.6119 64.7508C94.5746 65.0449 94.2599 65.1501 94.0687 65.2947ZM93.8343 66.4624C93.6 66.6621 93.2754 66.7536 93.0205 66.9296C92.6273 67.207 92.2772 67.5779 91.8968 67.8642C91.7232 67.996 91.4713 68.113 91.3526 68.2921C91.1565 68.5872 91.1957 69.0839 90.9643 69.3426V69.4971C91.2742 69.3849 91.4193 69.022 91.6634 68.837C91.9625 68.6098 92.2164 68.3088 92.5165 68.0953C92.7057 67.9635 92.9195 67.8907 93.0989 67.7451C93.2215 67.7677 93.2117 67.7815 93.294 67.8248C93.2754 68.8134 92.7557 69.5109 92.44 70.2388C92.3488 70.4503 92.3214 70.7808 92.1674 70.9372C92.0958 71.012 91.9429 71.0297 91.8595 71.0916C91.6007 71.3789 91.3418 71.6632 91.081 71.9504C90.8359 72.2888 90.7231 72.7403 90.4623 73.0777C90.4594 73.1899 90.4594 73.2902 90.4986 73.3492C90.5378 73.3807 90.6074 73.4073 90.6545 73.4279C91.1545 72.9528 91.6389 72.5564 92.0517 71.9868C92.6959 71.0976 93.0185 69.9732 93.4872 68.9128C93.7814 68.2429 94.2069 67.5828 94.1844 66.6168C94.1392 66.5735 94.102 66.5185 94.0696 66.4614L93.8343 66.4624ZM91.1183 72.6134V72.6518H91.079C91.1467 72.1845 91.5007 72.0557 91.6634 71.7153H91.7409C91.6909 72.1019 91.3987 72.4491 91.1183 72.6134Z" fill="#373334"/>
</g>
<g id="4/4">
<path id="path4587" d="M97.3713 32.4794L97.4781 32.5947L97.839 33.0558C98.9192 37.1322 99.5 41.4181 99.5 45.8374C99.5 46.8932 99.4598 47.9406 99.3952 48.9802L99.0384 49.5828L99.244 50.0904C99.04 50.4075 98.8757 50.651 98.5082 51.2594C97.2659 53.3124 97.0709 54.9705 97.0709 54.9705C97.0709 54.9705 96.9528 55.615 97.0185 55.9898C97.0793 56.339 97.2031 56.4982 97.208 56.6005C97.2168 56.7028 97.1356 57.5442 96.7101 58.3459C96.2816 59.1476 95.9098 59.3591 95.9098 59.3591C95.9098 59.3591 95.1681 59.8965 95.0651 59.5148C94.9631 59.1312 94.9936 58.8063 95.0308 58.5643C95.0661 58.3203 95.3151 57.0117 95.2788 56.5257C95.2435 56.0398 94.8091 56.4307 94.8091 56.4307C94.8091 56.4307 94.707 56.5477 94.5168 56.7906C94.3256 57.0346 93.2545 58.4018 92.8456 58.8818C91.8759 60.0209 90.9956 60.8382 88.6365 62.7466C88.6296 62.7496 88.6232 62.7568 88.6183 62.7607L88.6082 62.7769C88.4024 62.4341 88.1923 62.1809 88.0801 62.0347C87.8016 61.6757 87.2977 61.8351 86.679 60.3359C85.9691 58.6213 85.8853 57.2009 85.9412 56.3235C85.9971 55.447 86.2055 55.1107 86.6085 54.7359C87.0115 54.3591 88.7896 54.5276 88.7896 54.5276C88.7896 54.5276 89.6612 54.7077 90.4427 53.4112C91.2183 52.1157 91.1624 49.9962 90.9124 48.9397C90.6623 47.8813 90.3035 46.9616 88.8582 46.8081C87.4129 46.6556 86.7617 48.4382 86.7617 48.4382C86.7617 48.4382 86.4699 49.1205 86.163 49.512C85.858 49.9006 85.026 49.7891 85.026 49.7891C84.6642 49.7478 84.2197 49.8855 83.7883 48.9943C83.3598 48.1041 82.3711 45.7625 82.3711 45.7625C82.0397 44.9716 81.8301 44.2723 81.6987 43.7401C82.6979 43.1873 84.4079 42.1752 85.6286 41.1413C87.4642 39.594 89.2559 37.969 89.7128 37.5617C90.1687 37.1515 90.588 36.8221 90.9949 36.8417C91.4018 36.8624 91.7145 37.1526 91.9645 38.2513C92.2175 39.3511 92.2642 40.2563 92.3818 40.7915C92.4965 41.3256 92.6615 41.9468 93.293 42.0737C93.9245 42.2006 94.7755 41.6484 95.0952 41.3739C95.4188 41.1024 95.9982 40.2163 95.96 39.03C95.96 39.03 96.027 37.4521 95.2141 35.9539C95.2141 35.9539 94.872 35.3507 94.7464 35.1854C94.6602 35.0693 94.5923 34.95 94.7363 34.6677C94.8814 34.3863 95.1931 33.8606 95.7745 33.5311C96.2157 33.2792 96.6381 33.2194 96.8812 33.1408C96.8812 33.1408 97.1539 33.0768 97.4961 32.8859L97.3713 32.4794Z" fill="#DCDCDD"/>
<path id="Subtract" d="M95.7773 42.3334C96.0519 42.3294 96.2424 42.3662 96.4355 42.4125C96.7619 43.1266 96.5989 44.1534 96.7861 45.0209C96.8812 45.4596 96.8434 46.0528 96.9385 46.4984V47.1214C97.0697 47.7303 96.8774 48.5289 97.0176 49.1839C97.1293 49.7102 97.1303 50.7221 97.0166 51.2494V51.9115C96.9146 52.3816 96.8891 52.97 96.7832 53.388H96.7051V53.1546C96.6064 52.9904 96.7051 52.0362 96.7051 51.6361C96.7051 50.3888 96.6748 49.1313 96.6689 47.9007H96.6279V47.9789C96.1063 48.4412 95.7813 49.1336 95.2705 49.6117C95.2833 51.0153 95.3047 52.4305 95.0371 53.5824H94.9219C94.9111 52.4443 94.8848 51.1103 94.8828 49.9252H94.8438C94.6605 50.1926 94.3036 50.3288 94.1074 50.5853C94.0241 50.6975 93.9556 50.8631 93.8359 50.9359C93.7596 50.9496 93.6818 50.9632 93.6045 50.9769C93.2918 50.7825 92.8488 50.8785 92.8271 50.3929C92.8576 50.3526 92.8407 50.3807 92.8662 50.3138C94.1711 50.1722 95.0381 49.2283 95.7773 48.4857C96.0568 48.2024 96.4945 47.8382 96.6309 47.4349C96.7112 47.2078 96.6155 46.4734 96.5527 46.1888V45.7211C96.4302 45.1566 96.4496 44.4437 96.3213 43.892C96.3076 43.7238 96.295 43.5552 96.2822 43.3861C96.1587 43.032 95.7035 42.9599 95.6221 42.6068C95.6044 42.4888 95.6784 42.4355 95.7773 42.3334ZM94.6523 43.7328C94.7082 43.837 94.7275 43.8984 94.7285 44.0834C94.6972 44.1246 94.7149 44.0946 94.6895 44.1625H94.7676C95.1558 43.9146 95.5698 44.5631 95.6611 44.7845C96.1847 46.0623 95.6632 48.2811 94.3799 48.1703C94.3142 48.0926 94.2689 48.1151 94.1846 48.0531C94.0081 47.9232 93.8431 47.5673 93.7588 47.3529C93.3001 46.1873 93.8344 44.8121 94.458 44.2386C94.4501 43.9761 94.3683 43.9688 94.3418 43.7328C94.4088 43.7094 94.3798 43.7261 94.418 43.6957C94.4993 43.7075 94.5739 43.72 94.6523 43.7328ZM94.6865 44.7445C94.6453 44.774 94.6517 44.7688 94.5713 44.7836C94.4429 44.9458 94.2699 45.0809 94.1836 45.2904C93.8904 45.9986 93.9558 47.4861 94.7666 47.5482C94.8519 47.4686 94.9997 47.4374 95.0771 47.3539C95.5684 46.8227 95.5256 45.6001 95.2295 44.9007C95.0629 44.8005 94.9805 44.7435 94.6865 44.7445Z" fill="#373334"/>
</g>
<g id="4/3">
<path id="path4579" d="M90.4125 17.2023C93.4727 21.5724 95.9347 26.5487 97.4721 31.7716C97.4333 31.7746 97.3981 31.7716 97.3572 31.7797C96.9816 31.8564 96.9458 32.1362 96.3654 32.2307C95.7839 32.3251 95.1123 32.5305 94.4563 33.527C93.7994 34.5215 94.4563 35.7618 94.4563 35.7618C94.4563 35.7618 94.8088 36.3435 94.9785 36.6435C95.1471 36.9445 96.0257 38.8226 95.0168 40.1928C95.0168 40.1928 94.476 40.8247 93.521 41.0382C92.6767 41.2251 92.8916 40.2357 92.8053 39.7054C92.8053 39.7054 92.6792 37.462 91.5918 36.1764C90.6358 35.049 88.8986 37.0505 88.0337 37.7174C87.2281 38.3359 84.8707 40.7758 81.4842 42.559L81.3592 40.9249C81.3592 40.9249 81.2774 40.0485 80.8048 38.6821C79.8449 35.9022 78.8998 34.6272 78.8998 34.6272C78.8998 34.6272 78.3198 33.3309 76.9706 33.3309C75.6655 33.3309 75.5676 34.5281 75.5676 34.5281C75.5676 34.5281 75.2593 35.4778 74.7592 35.7719C74.2719 36.0562 72.8288 36.9002 72.064 36.0631C71.1403 35.0538 70.635 33.8737 70.5359 32.7464C70.4388 31.6171 70.8988 31.1588 70.8988 31.1588C70.8988 31.1588 70.9948 30.8656 72.4812 30.8656C74.1472 30.8656 74.4548 30.3519 74.4548 30.3519C74.4548 30.3519 74.7726 30.0585 74.7471 29.4034C74.7187 28.7492 74.4664 27.3429 73.9811 26.4507C73.6614 25.8654 72.9429 24.9331 72.3301 24.2209C72.9095 24.0045 73.7088 23.6882 74.5697 23.2977C76.3356 22.5009 77.1766 21.8347 77.9846 21.3723C77.9846 21.3723 79.7647 20.271 80.8149 20.3005C80.8149 20.3005 81.0604 20.2923 81.083 20.616C81.1055 20.9396 81.1839 21.4165 81.2947 21.6939C81.4045 21.9703 82.0166 23.4859 83.9718 23.7082C85.9269 23.9325 86.7617 22.61 86.7617 22.61C86.7617 22.61 87.43 21.5777 86.2759 20.351C86.2759 20.351 85.3357 19.3387 85.3063 19.261C85.3063 19.261 85.2038 19.1091 85.4696 19.0324C85.7206 18.9594 88.2574 18.2435 89.4469 17.7381L89.702 17.617C89.702 17.617 89.8843 17.5487 89.9509 17.5237C90.1179 17.4399 90.2988 17.324 90.4125 17.2023Z" fill="#DCDCDD"/>
<path id="Subtract_2" d="M88.9463 23.8818C89.7807 23.8927 90.0887 24.7195 90.3818 25.2842C90.5593 25.6245 90.6869 25.9366 90.8477 26.335C91.4605 27.8462 92.1885 31.8702 90.6924 32.9502C89.8374 33.5685 88.8451 32.9034 88.248 32.4824C86.9825 31.5903 86.1491 30.5321 85.4932 29.0195C85.3363 28.6527 85.0962 28.2696 84.9893 27.8506H85.0664V27.8887C85.2732 28.0912 85.3978 28.3548 85.5703 28.5898C85.7566 28.8417 86.0442 29.0471 86.2295 29.292C86.7795 30.0218 87.4829 30.8586 88.3643 31.2383C89.6044 31.7752 90.7573 31.3455 90.8467 29.9922C90.4613 29.7994 90.1661 29.4321 89.915 29.0986C89.2071 28.1513 87.6407 26.199 88.4023 24.4658C88.522 24.1992 88.7394 24.0579 88.9463 23.8818ZM89.2979 25.751C88.8086 26.4966 89.6779 27.2625 90.1113 27.6982C90.2059 27.7932 90.6315 28.3024 90.7334 28.2041C90.7633 28.1645 90.7471 28.1935 90.7705 28.125C90.6107 27.8653 90.5874 27.3674 90.4609 27.0732C90.2217 26.5264 89.8706 26.1474 89.4902 25.751H89.2979Z" fill="#373334"/>
</g>
<g id="4/2">
<path id="path4571" d="M67.5787 18.6766C67.0237 17.8818 66.9409 17.7004 66.8429 17.4348C66.7448 17.1692 67.0098 16.5716 67.2481 16.2922C67.4824 16.0138 67.7589 15.958 68.3286 16.0839C68.8983 16.2088 69.2721 16.4599 70.1751 16.1668C71.0792 15.8756 71.1225 15.1928 71.1911 14.4963C71.2617 13.7998 70.4266 12.3236 69.7599 11.6124C69.0931 10.9021 68.15 10.7894 67.496 10.8317C66.844 10.874 66.4715 11.3482 66.095 11.5578C65.7204 11.7663 65.0106 11.9756 64.6919 11.8369C64.3733 11.6962 63.8866 11.5572 63.3453 10.5951C62.9721 9.93518 62.6895 9.38969 62.4946 9.01359C62.7008 8.95278 62.8458 8.90654 63.0893 8.84371C63.81 8.65669 65.0685 8.24007 65.4076 8.10756V8.10957C65.5907 8.03854 67.156 7.51386 68.1814 7.33702H68.1835C69.2051 7.15777 70.2181 7.23128 70.5804 7.42398C70.6302 7.47293 70.8396 7.67321 70.9211 7.85273C71.1069 8.26225 71.4306 8.84605 72.0479 9.1592H72.05L72.0521 9.16122C72.4958 9.38284 73.0071 9.56729 74.1284 9.47469C74.1652 9.47453 74.1914 9.47565 74.2292 9.46862C74.2926 9.45681 74.3612 9.4375 74.4348 9.4039C74.5821 9.3367 74.7501 9.22287 74.9569 9.02774L75.0275 8.961L75.0678 8.87606C75.2286 8.52718 75.2254 8.15817 75.1543 7.87093C75.0833 7.5837 74.972 7.35826 74.8923 7.13276L74.862 7.04782L73.9892 6.01842C74.4322 5.95972 74.907 5.90431 75.4991 5.7454C75.8441 5.65331 76.0603 5.57005 76.2107 5.49664L76.4848 5.57956C76.5974 5.67071 79.8519 8.31049 81.0085 9.07426L81.3754 9.3129L81.6656 8.96303C81.7953 8.97817 81.9167 8.97899 82.1071 9.05404C82.3681 9.1569 82.9358 9.53357 82.9538 9.54548C82.9694 9.55822 83.3289 9.85114 83.7561 10.2594C84.1879 10.672 84.6628 11.2075 84.8306 11.5254L84.9576 11.9157L84.8064 12.1544L84.9939 12.4213C84.9939 12.4213 85.9007 13.71 87.0541 14.9918C87.0541 14.9918 87.3594 15.4063 87.7213 15.8736C88.0356 16.2793 88.362 16.683 88.6426 16.9717C88.3684 17.0845 87.9799 17.2274 87.4512 17.3701C86.3599 17.6652 85.3063 18.1568 85.3063 18.1568C85.3063 18.1568 84.4356 18.4417 84.7661 19.1539C85.0975 19.868 85.5885 20.2116 85.5885 20.2116C85.5885 20.2116 86.2847 20.8903 86.3102 21.4048C86.3328 21.9222 86.1153 22.1586 85.5623 22.4645C85.0123 22.7724 84.508 22.8326 84.508 22.8326C84.508 22.8326 83.1947 23.0692 82.5446 22.4524C81.8945 21.8366 81.7745 20.8163 81.7745 20.8163C81.7745 20.8163 81.7242 19.9535 80.6456 19.5846C79.567 19.2158 78.2427 20.0033 78.2427 20.0033C78.2427 20.0033 77.2005 20.5565 76.0837 21.2814C74.9659 22.0074 72.8575 22.8962 71.5328 23.3635C70.9837 22.8569 68.1337 19.4694 67.5787 18.6766Z" fill="#DCDCDD"/>
<path id="Subtract_3" d="M76.8447 9.98994C78.0006 9.97027 78.6244 10.6192 79.2871 11.1188C79.486 11.2654 79.6251 11.5302 79.8701 11.6237C79.9968 11.4429 80.6772 10.839 80.8779 10.7673V10.8054C81.2886 11.2066 81.5972 11.7205 82.0029 12.1296C82.1872 12.3115 82.5287 12.4922 82.623 12.7526H82.583C82.4017 12.9325 82.1789 13.028 81.8086 13.0251C81.5684 12.7931 81.2537 12.6567 81.0322 12.403C80.8599 12.2042 80.7703 11.8598 80.5273 11.7409C80.4284 11.8874 80.3215 11.8959 80.2959 12.1306C80.6468 12.3636 81.5165 13.5403 81.6934 13.9597C81.7648 14.1328 81.833 14.5333 81.7314 14.737C81.455 15.2956 80.6588 15.3982 80.2959 15.8259C79.9439 16.243 79.4872 17.3471 78.5498 17.113C77.7185 16.9044 77.2137 16.2775 76.7656 15.6726C76.2254 14.9379 75.5972 14.1876 75.2129 13.2985C75.0247 12.8578 74.7776 11.9833 75.0215 11.3913C75.2393 10.8613 75.7802 10.4105 76.3008 10.1843C76.4851 10.1066 76.6987 10.103 76.8447 9.98994ZM75.6016 10.8063C75.2774 11.365 75.9004 12.0907 76.1445 12.4802C76.8564 13.6124 77.4778 14.7518 78.3955 15.6716C78.7661 16.0453 79.1068 16.4958 79.792 16.3337C79.8684 16.2029 79.9442 16.12 79.9863 15.9431C79.751 15.7601 79.6159 15.4487 79.4414 15.2038C79.1002 14.7277 78.7084 14.2805 78.3555 13.8034C77.7819 13.0303 77.0736 12.3559 76.4941 11.5847C76.2844 11.3045 75.952 11.1002 75.7559 10.8063H75.6016ZM76.5723 10.2614C76.5274 10.321 76.5292 10.2928 76.4961 10.3767C76.6392 10.475 76.6919 10.5994 76.8037 10.7282C77.191 11.162 77.6138 11.5402 77.9687 12.0124C78.1756 12.2876 78.4983 12.5125 78.7061 12.7897C79.3434 13.6377 80.1345 14.4042 80.6826 15.321C80.749 15.2955 80.7209 15.3122 80.7598 15.281C80.9549 15.2298 80.9897 15.1236 81.1094 15.0095C81.1133 14.2471 80.6868 14.0018 80.373 13.57C79.675 12.6012 78.8787 11.7148 77.9297 11.0017C77.5463 10.7115 77.2292 10.2674 76.5723 10.2614Z" fill="#373334"/>
</g>
<g id="3/6">
<path id="path4601" d="M80.0771 83.0352C79.9278 83.3537 79.6215 83.8968 79.6215 83.8968C79.6215 83.8968 79.3455 84.4393 79.3171 84.7462C79.2906 85.0541 79.0691 85.0112 79.0691 85.0112C79.0691 85.0112 78.6298 85.0114 78.0128 85.2539C77.9494 85.2736 77.9582 85.2626 77.8697 85.2923C77.8697 85.2923 77.7994 85.3321 77.7749 85.3449C77.5476 85.4538 77.304 85.6004 77.0452 85.7938C77.0089 85.8185 76.9882 85.8281 76.9504 85.8545C76.923 85.8761 76.8983 85.8956 76.8718 85.9172C76.6987 86.0588 76.5798 86.175 76.4324 86.3055C76.3086 86.4148 76.1715 86.5295 76.0655 86.6291C75.8861 86.7979 75.7545 86.9286 75.626 87.0619C75.5794 87.1099 75.5473 87.1383 75.5071 87.1812C75.4666 87.2243 75.4 87.2893 75.366 87.3268C75.3429 87.3554 75.3215 87.3861 75.2994 87.4158C75.2366 87.4897 75.0958 87.6464 75.0958 87.6464C75.0958 87.6464 74.6787 88.2025 75.0817 88.2025C75.4837 88.2025 76.4274 87.7142 76.7892 87.3936C77.15 87.0719 76.9706 87.339 76.9706 87.339C76.8553 87.4688 76.6954 87.6125 76.5533 87.7515C72.256 90.4989 67.5061 92.5914 62.4422 93.9077C61.9179 93.8743 61.5326 93.8047 61.3496 93.7803C60.9269 93.7232 60.5858 93.6388 60.4868 93.4264C60.3887 93.2149 60.9544 93.2261 60.9544 93.2261C60.9544 93.2261 62.6058 93.0434 64.1335 92.5486C65.6602 92.0509 66.0258 91.5821 65.9679 91.228C65.912 90.8749 65.1379 90.9016 64.2182 91.1997C63.3004 91.4988 61.9282 91.9378 61.6056 92.0087C61.4762 92.036 61.3496 92.0376 61.2286 92.0329C61.1765 92.0307 61.1215 92.0328 61.0754 92.0228C61.0388 92.0149 61.004 92.0058 60.9726 91.9925C60.959 91.9867 60.9447 91.9811 60.9323 91.9743C60.8836 91.9474 60.8405 91.9143 60.8133 91.8691L60.8113 91.867C60.7959 91.8395 60.7847 91.804 60.771 91.772C60.7597 91.7459 60.7454 91.7239 60.7367 91.6951C60.7171 91.6309 60.7058 91.5608 60.7085 91.4848C60.7137 91.3324 60.7774 91.1596 60.9544 90.9751C61.0435 90.8825 61.1121 90.7938 61.1661 90.7122C61.2197 90.6309 61.2577 90.558 61.285 90.4958C61.34 90.3714 61.3515 90.2936 61.3515 90.2936C61.3585 90.2601 61.3568 90.2245 61.3616 90.1904C61.3966 89.9713 61.4018 89.7432 61.3718 89.5089C61.4375 89.4951 61.4726 89.4887 61.4726 89.4887C61.4726 89.4887 63.7317 88.9583 64.6818 88.797C65.629 88.6318 67.7746 88.1698 68.6894 87.7272C69.5993 87.2855 70.0581 86.937 70.165 86.6695C70.2699 86.4019 69.78 86.2468 69.78 86.2468C69.78 86.2468 69.2046 86.1107 69.2821 85.9111C69.3576 85.7094 69.5694 85.5367 70.4714 85.1324C71.3725 84.7281 72.5018 84.2874 73.6344 84.008C74.7659 83.7306 74.354 84.2001 74.354 84.2001C74.354 84.2001 73.6742 84.8922 73.586 85.1607C73.5007 85.4303 73.6156 85.4412 73.7029 85.4884C73.7892 85.5376 74.3362 85.5171 74.7068 85.4216C75.0823 85.3252 78.1016 84.1716 79.942 83.1141C79.9881 83.0885 80.034 83.0608 80.0771 83.0352Z" fill="#DCDCDD"/>
<g id="path4837_2">
<path d="M74.3599 86.8956H74.7482L74.7472 86.9753C74.7766 87.0186 74.7746 87.0412 74.7864 87.1297C74.3079 87.6521 73.8314 89.0843 73.1175 89.2683V89.1532C73.3833 88.9663 74.255 87.7859 74.2814 87.4022H74.203C74.0206 87.2891 73.7225 87.4622 73.5823 87.5183C73.0332 87.7505 72.7548 87.959 72.3792 88.3367C72.391 88.4646 72.4508 88.5433 72.4184 88.5669C72.3792 88.622 72.342 88.6387 72.3008 88.685C72.2351 88.6614 72.2645 88.6761 72.2253 88.6456C72.0772 88.5964 72.0733 88.5669 72.0694 88.3722C72.2547 88.202 72.3714 87.9374 72.5744 87.7908C72.8175 87.6108 73.1303 87.4229 73.3872 87.2842C73.6804 87.1288 74.102 87.1022 74.3599 86.8956Z" fill="#373334"/>
<path d="M70.5976 90.2038C70.8525 90.0021 71.4144 89.9825 71.6438 89.7759C72.1861 89.289 72.2586 88.3997 73.1558 88.261C73.096 88.5522 72.3321 89.5929 72.1076 89.7405C71.7909 89.9451 71.382 89.9815 71.0202 90.13C70.4937 90.3435 69.9495 90.615 69.3533 90.7527V90.674C69.7181 90.5638 70.2711 90.129 70.3623 89.7405C70.3231 89.7267 70.2838 89.7159 70.2476 89.7011C70.0868 89.5929 69.7161 89.6874 69.5475 89.7405C69.0405 89.9008 68.0973 90.2451 67.8423 90.6346H67.8806C68.1728 90.3592 68.8052 90.2579 69.2749 90.2854V90.3631C69.2857 90.4005 69.3053 90.3779 69.2749 90.4025C69.119 90.9593 67.8306 91.3823 67.1432 91.336C67.1207 91.2691 67.1079 91.2131 67.105 91.1039C67.2511 90.9661 67.3413 90.7674 67.4933 90.6346C68.0777 90.1212 69.9691 89.1414 71.1016 89.3499V89.4286C71.13 89.4699 71.1232 89.464 71.1398 89.5437C71.0526 89.6332 71.0212 89.7523 70.9467 89.8546C70.8427 89.9943 70.6594 90.0562 70.5584 90.2038H70.5976Z" fill="#373334"/>
</g>
</g>
<g id="3/5">
<path id="path4593" d="M56.9226 76.2642C58.5826 76.1835 61.18 75.8009 62.688 75.4694C64.198 75.133 66.4818 74.4276 68.1712 73.5521C69.8617 72.6727 69.9432 72.0576 69.9432 72.0576C69.9432 72.0576 70.2652 71.5913 69.5602 71.0788C68.8552 70.5633 68.5438 70.703 67.9192 70.0676C67.2966 69.4311 68.4635 68.4739 68.4635 68.4739C68.4635 68.4739 69.065 67.6278 72.4066 66.3362C75.7453 65.0456 76.3101 65.4766 76.4807 65.6183C76.6523 65.7599 76.6732 66.2236 76.6016 66.5365C76.533 66.8503 76.1187 67.9675 75.8961 68.5548C75.6735 69.1391 75.5847 69.9384 76.4887 70.1303C77.3928 70.3211 78.6598 70.1233 79.8492 69.6954C82.6849 68.6783 83.5322 67.4361 88.2171 64.0246C88.2289 64.0168 88.2385 64.0093 88.2474 64.0044C88.2474 64.003 88.2488 64.0018 88.2494 64.0005C88.4553 64.5651 88.6043 65.459 88.3906 66.7732C87.9307 69.6004 87.1266 70.5066 87.1266 70.5066C87.1266 70.5066 86.1244 71.912 84.9596 72.0537C83.7908 72.1924 82.512 72.1506 81.3471 73.4471C80.0528 74.8833 80.319 76.7335 80.319 76.7335C80.319 76.7335 80.4315 77.8626 81.6414 77.5566C82.8465 77.2487 84.0825 76.3174 85.014 75.5767C85.9425 74.838 85.3728 75.8275 85.3728 75.8275C84.5541 77.4289 82.9981 79.033 82.9981 79.033C82.9981 79.033 82.4557 79.5069 81.2624 81.1929C80.9525 81.6301 80.706 82.0073 80.4924 82.3477C79.2698 83.0108 77.5447 83.8861 76.3941 84.36C74.9939 84.9374 74.2759 85.0637 74.4004 84.8797C74.5239 84.6968 74.8519 84.4267 74.8519 84.4267C74.8519 84.4267 75.245 84.0344 75.245 83.638C75.245 83.638 75.3679 83.0625 73.6706 83.4196C71.9753 83.7747 70.4432 84.6107 70.4432 84.6107C70.4432 84.6107 67.9199 85.7738 68.516 86.4673C68.516 86.4673 68.63 86.6508 69.1369 86.8131C69.6468 86.9774 68.2378 87.4097 68.2378 87.4097C66.8975 87.8504 65.8701 88.0523 64.5689 88.3218C63.0155 88.6426 62.0346 88.863 61.273 89.0317C61.2723 89.029 61.2716 89.0263 61.2709 89.0236L61.277 89.0216C61.0335 88.1003 60.5294 87.2948 60.2227 86.8151C60.1613 86.7191 60.0602 86.5445 60.0231 86.4855V86.4834C59.9457 86.3597 59.8562 86.2501 59.7409 86.1578C59.6299 86.0688 59.4929 85.9977 59.3236 85.9475C58.9654 85.8402 58.455 85.8281 57.6766 85.9576C56.151 86.2134 54.3565 86.9789 54.3565 86.9789C54.3565 86.9789 53.8934 87.2243 53.2578 87.4461C52.6223 87.6679 51.8143 87.8662 51.123 87.7737C50.6035 87.7044 50.2381 87.4639 49.9861 87.167C49.9024 87.0685 49.8308 86.9643 49.7704 86.8576V86.8555C49.7101 86.7488 49.6614 86.6404 49.6212 86.534V86.5319C49.5811 86.4256 49.5495 86.3222 49.5264 86.2245V86.2224C49.4802 86.026 49.4646 85.8553 49.468 85.7451C49.4719 85.6361 49.493 85.5311 49.5325 85.4296V85.4276C49.5722 85.326 49.6332 85.2289 49.7139 85.1363C49.8767 84.9507 50.1277 84.7845 50.488 84.6429C51.2087 84.3576 52.9036 83.9759 55.3745 83.8481C56.9178 83.7682 57.855 83.1066 58.3419 82.6225C58.6345 82.3315 58.7652 82.1068 58.7652 82.1068C58.8866 81.9312 59.0435 81.6729 59.12 81.3787V81.3766C59.196 81.0829 59.1932 80.7526 58.991 80.4302L58.9889 80.4281C58.9218 80.321 58.8317 80.2143 58.7168 80.1106L58.7147 80.1085C58.5993 80.0046 58.4572 79.9045 58.2853 79.8072L58.2833 79.8051C57.9382 79.6114 57.6782 79.479 57.4709 79.3804L57.4688 79.3783C57.2623 79.2801 57.1078 79.2174 56.9769 79.1619L56.9749 79.1599C56.7124 79.0491 56.5405 78.9718 56.209 78.7175C55.8762 78.4612 55.5299 78.1775 55.2313 77.8499C55.0827 77.6868 54.9456 77.5133 54.8282 77.3261L54.8261 77.324C54.7645 77.2257 54.7268 77.1124 54.6769 77.0065C54.6319 76.9106 54.5734 76.8218 54.5398 76.7193V76.7172C54.5352 76.7021 54.5255 76.6816 54.5197 76.6647C54.4945 76.5904 54.4702 76.5067 54.4401 76.4311C55.1578 76.372 56.0921 76.3055 56.9226 76.2642Z" fill="#DCDCDD"/>
<path id="path4837_3" d="M71.8782 74.1696C73.0549 74.2542 74.007 73.6935 75.1395 73.9738C75.2395 74.1283 75.3915 74.2837 75.4513 74.4814C75.5503 74.8365 75.4944 76.1203 75.4101 76.5049C75.2973 77.0194 75.3817 77.5456 75.2571 78.1004C75.063 78.9562 75.0355 79.9301 74.8306 80.7466C74.759 81.0308 74.811 81.2709 74.7139 81.5247C74.5462 81.9634 73.9864 82.5733 73.3912 82.5762C73.5089 81.9919 73.6255 81.4086 73.7403 80.8262C73.8687 79.8642 73.9991 78.9041 74.1286 77.945C74.2423 77.4325 74.3001 76.5127 73.9746 76.2698C73.7344 76.0957 73.2657 76.1616 72.9666 76.2324C72.4264 76.3593 71.1605 76.5344 70.7163 76.2324C69.8858 75.6737 70.7899 73.843 71.6086 73.8194C71.6821 73.9827 71.7665 74.0506 71.8782 74.1696Z" fill="#373334"/>
</g>
<g id="3/4">
<path id="path475" d="M80.8904 44.1629C81.4728 46.208 82.7048 48.7933 83.2097 49.8478C83.7235 50.921 84.877 51.0302 85.7094 50.8226C86.5429 50.6121 86.8179 50.1524 87.2778 49.148C87.7367 48.1466 87.9853 48.0762 87.9853 48.0762C87.9853 48.0762 88.1683 47.812 89.0155 47.9103C89.8626 48.0077 90.0436 48.606 90.0436 48.606C90.0436 48.606 90.5297 49.7614 90.4326 50.9743C90.3365 52.1842 90.0721 52.7307 89.7936 53.1625C89.5151 53.5943 88.07 53.4537 88.07 53.4537C88.07 53.4537 85.5843 53.1755 85.3627 56.1718C85.1421 59.1672 86.1388 61.242 86.1388 61.242C86.5016 62.0358 86.8761 62.4546 87.181 62.6779C87.4869 62.8992 87.7777 63.1936 87.7777 63.1936C87.7777 63.1936 87.83 63.2403 87.9047 63.3392H87.9026C86.1308 64.7793 85.6074 65.246 84.1954 66.2474C84.1954 66.2474 82.5838 67.4531 80.8209 68.4073C79.054 69.3595 76.9806 69.2466 76.9806 69.2466C76.9806 69.2466 76.4168 69.1857 76.6903 68.7774C76.961 68.3692 77.311 67.3759 77.4463 66.8703C77.5836 66.3637 77.853 65.0802 76.8254 64.672C75.7978 64.2637 73.8661 64.8641 73.8661 64.8641C73.8661 64.8641 69.4279 66.0503 67.6189 68.0433C65.8618 69.9802 67.3387 70.8423 67.3387 70.8423C67.3387 70.8423 68.0287 71.3242 68.6974 71.5623C69.3288 71.7875 69.201 71.9882 69.0441 72.1063C69.0441 72.1063 67.0626 73.373 64.7221 74.0478C64.7221 74.0478 61.5195 75.0333 58.4063 75.2349C55.3174 75.4352 54.0104 75.5137 54.0056 75.514L54.0077 75.5119C53.6743 74.8548 53.3284 74.2661 53.3284 74.2661C53.3284 74.2661 53.2483 74.1499 53.1469 73.9486V73.9466C53.0961 73.8455 53.0393 73.7225 52.9836 73.5825V73.5805C52.928 73.4402 52.8732 73.2828 52.8264 73.1113V73.1092C52.7797 72.9377 52.7397 72.7526 52.7156 72.5573V72.5552C52.6674 72.1636 52.679 71.7319 52.8043 71.2912V71.2891C52.867 71.069 52.9599 70.8467 53.0865 70.6258V70.6237C53.2132 70.4025 53.3512 70.2011 53.4937 70.017V70.0149C53.6366 69.8305 53.7855 69.6652 53.9352 69.5154C54.534 68.916 55.1491 68.5833 55.4934 68.4273L55.4955 68.4253C55.6664 68.348 55.7679 68.3166 55.7697 68.3161C55.7697 68.3161 57.241 67.9889 58.7088 68.3302C59.4057 68.4906 59.9262 68.4344 60.2752 68.3404C60.4486 68.2939 60.5788 68.2397 60.6662 68.1948L60.6683 68.1927C60.7527 68.1488 60.7993 68.1158 60.7993 68.1158C60.7993 68.1158 60.8508 68.0919 60.9344 68.0309L60.9365 68.0288C61.0201 67.9675 61.1335 67.8693 61.255 67.7174C61.2969 67.665 61.3411 67.5968 61.384 67.5313C61.4035 67.5015 61.4231 67.4791 61.4425 67.4464C61.5039 67.3429 61.5648 67.2233 61.6219 67.0884C61.6224 67.0872 61.6233 67.0856 61.6239 67.0844C61.6418 67.042 61.6553 66.9865 61.6723 66.9408C61.7101 66.8391 61.7486 66.7403 61.7812 66.6212C61.8008 66.5497 61.8143 66.4607 61.8316 66.3826C61.8556 66.2732 61.8818 66.1719 61.9001 66.0489C61.9003 66.0473 61.9019 66.0464 61.9022 66.0449C61.9976 65.4081 62.0182 64.5657 61.8901 63.7292C61.8899 63.7279 61.8903 63.7264 61.8901 63.7252C61.8472 63.4466 61.7877 63.1697 61.7086 62.9V62.898C61.3912 61.817 60.7598 60.8704 59.6303 60.5581C58.4979 60.2462 57.6327 60.3876 57.0499 60.6046C56.7597 60.7129 56.5399 60.8383 56.3925 60.9386L56.3905 60.9407C56.2455 61.0397 56.1687 61.1126 56.1687 61.1126V61.1147C56.1678 61.1157 55.8644 61.4494 55.5115 61.8104L55.5095 61.8124C55.1566 62.1734 54.7547 62.5591 54.558 62.6578C54.1618 62.8555 53.5541 63.2079 53.5541 63.2079C53.5541 63.2079 52.7054 63.7191 52.1288 63.847C51.7476 63.9325 50.3772 62.1056 50.2359 60.7021V60.7001C50.1707 60.0528 50.072 59.4656 50.0021 58.708C50.0011 58.6968 50.0012 58.6809 50 58.6696C49.9321 57.9193 49.8917 57.0054 49.9375 55.6987V55.6825L49.9355 55.6804C50.3359 55.6569 50.7439 55.6375 51.1531 55.6218C54.6555 55.4949 56.391 55.0761 58.253 54.6571C60.114 54.239 62.7331 52.7124 63.1213 52.4183C63.5096 52.1281 64.3244 51.7678 64.4881 50.493C64.6528 49.2191 63.1516 48.3715 63.1516 48.3715C63.1516 48.3715 61.9562 47.7387 61.7042 47.4574C61.4532 47.175 61.686 46.9032 61.686 46.9032C61.686 46.9032 62.3624 45.4424 64.5264 44.5876C66.6885 43.7298 68.1432 43.4998 69.0541 43.4004C69.9679 43.3031 70.2772 43.6323 70.4027 43.7887C70.5282 43.9432 70.5278 44.2672 70.4229 44.5977C70.3228 44.9007 69.987 45.6177 69.7899 45.9689C69.5967 46.3191 69.2785 47.1652 69.4814 47.5646C69.6854 47.9629 70.3062 48.149 71.1103 48.0034C71.9153 47.8568 74.04 47.2536 75.902 46.4745C77.765 45.6954 80.8904 44.1629 80.8904 44.1629Z" fill="#DCDCDD"/>
<path id="path4837_4" d="M75.5268 58.3626C75.6895 58.9715 75.7503 60.3496 76.1857 60.6192C76.5642 60.8543 77.1917 60.4962 77.4662 60.4264C77.479 60.5159 77.4898 60.6064 77.5045 60.6979C76.4014 61.1159 75.2904 61.5979 74.207 62.0593C74.052 62.1262 73.1657 62.4164 73.1617 62.4095C73.1206 62.3544 73.1 62.258 73.0833 62.1754C73.501 62.019 74.1511 61.7563 74.3256 61.3589C74.5031 60.9497 74.3501 60.2975 74.2472 59.9188C73.9707 58.8849 73.8628 57.8275 73.5883 56.8438C73.4451 56.3313 73.3716 55.8315 73.2392 55.3653C73.1755 55.1351 73.2245 54.8144 73.046 54.7042C72.9695 55.2767 72.4528 56.0224 72.2302 56.5319C71.6458 57.8658 71.0683 59.1505 70.4084 60.4224C70.1849 60.8553 69.5583 61.7622 69.5162 62.2531C69.5818 62.4597 69.6456 62.6682 69.7113 62.8748C69.7878 62.9397 69.8642 63.0036 69.9437 63.0705C70.5428 63.0823 70.8732 62.9525 71.3017 62.8374C71.3144 62.9259 71.3252 63.0184 71.3419 63.1089C70.3398 63.4817 69.3553 63.7729 68.313 64.1211C67.7787 64.3051 67.2364 64.5835 66.6403 64.672C66.6275 64.5953 66.6167 64.5175 66.603 64.4379C67.0158 64.2657 67.7365 64.0926 67.8836 63.6598C68.1483 63.3332 67.8796 62.0731 67.7669 61.6757C67.3158 60.0821 67.0756 58.3626 66.603 56.8093C66.4285 56.2339 66.4118 55.3633 65.8666 55.1754C65.5186 54.9059 64.6665 55.3574 64.5086 55.2521C64.4566 55.1872 64.4449 55.1292 64.4321 55.019H64.4714V54.9787C64.8155 54.9403 65.1469 54.7662 65.4391 54.6678C66.0284 54.4701 66.5628 54.3796 67.1462 54.1612C67.763 53.931 68.4758 53.5641 69.1641 53.4608C69.1769 53.5513 69.1906 53.6428 69.2024 53.7333C68.768 53.8956 68.011 54.1307 67.961 54.6678C67.8149 54.8882 68.0473 55.9191 68.115 56.1463C68.4807 57.3336 68.7023 58.6675 69.0465 59.8824C69.1592 60.2867 69.1445 61.0294 69.3563 61.3205V61.2822C69.6779 60.9212 69.9672 60.0762 70.2104 59.6089C70.8457 58.3852 71.4242 57.1389 71.993 55.8355C72.2273 55.3053 72.8274 54.3767 72.8872 53.7727C72.6881 53.4953 72.7323 53.0379 72.3832 52.9149C72.0763 52.6454 71.1046 53.0752 71.0634 53.031C71.0379 53.0172 71.0115 53.0044 70.985 52.9916L70.985 52.9916V52.7575C71.2968 52.7241 71.5547 52.549 71.8017 52.4457C72.5911 52.1171 73.352 51.9214 74.1285 51.5899C74.509 51.4275 74.9208 51.1541 75.3709 51.0833C75.3924 51.1915 75.4375 51.2672 75.4101 51.3174C75.2424 51.521 74.8924 51.5928 74.6737 51.7453C74.5119 51.8584 74.4217 52.0374 74.2854 52.1732C74.1981 53.1234 74.4933 53.9281 74.7119 54.7032C75.0532 55.9142 75.2061 57.1674 75.5268 58.3626Z" fill="#373334"/>
</g>
<g id="3/3">
<path id="path4581" d="M59.0213 22.596C59.7085 22.5887 60.1885 22.6465 60.1885 22.6465C60.1885 22.6465 60.9921 22.7346 60.8578 23.2795C60.7205 23.8255 60.2666 24.7377 60.249 25.2069C60.2284 25.6731 60.2583 26.2156 61.1682 26.5963C62.0801 26.976 63.3897 26.8592 63.3897 26.8592C63.3897 26.8592 64.747 26.7905 66.9679 26.0704C69.1868 25.3514 71.4724 24.5284 71.4724 24.5284C73.4198 26.4436 73.7756 28.7805 73.7756 28.7805C73.7756 28.7805 74.0377 29.6996 73.4974 29.7694C73.0268 29.8294 71.9271 29.8402 71.9271 29.8402C71.9271 29.8402 71.5099 29.8815 70.8304 30.0202C70.1519 30.1589 69.72 30.8836 69.6229 31.3853C69.5278 31.887 69.2349 33.2649 70.389 35.4261C71.5401 37.5863 72.9975 37.4889 72.9975 37.4889C74.2624 37.3778 74.652 37.1533 75.3883 36.6517C76.1031 36.1628 76.4297 35.0785 76.4709 34.8699C76.514 34.6604 76.6105 34.4513 76.7753 34.4513C76.9439 34.4513 76.8869 34.4518 77.2752 34.3967C77.6655 34.3416 77.9584 34.6183 78.2771 35.2744C78.485 35.6944 79.5954 37.5315 79.916 38.6194C80.2357 39.7045 80.5154 40.7905 80.5409 41.7663C80.5537 42.1499 80.6071 42.5922 80.6679 42.9818L80.6639 42.9756C79.0382 43.7892 75.3514 45.5879 72.9471 46.4319C72.9471 46.4319 71.1069 47.1808 70.3587 47.2004C70.3587 47.2004 70.1931 47.2064 70.3245 47.0245C70.4549 46.8425 70.5969 46.7087 70.8224 46.3005C71.0489 45.8893 71.4574 44.9653 71.4574 44.0111C71.4574 43.0579 70.3593 42.1238 68.8287 42.29C67.2991 42.4543 65.8372 42.8814 64.0752 43.5621C62.3152 44.2429 60.7968 45.6867 60.5938 46.8829C60.3889 48.0791 61.6784 48.7698 61.6784 48.7698C61.6784 48.7698 63.134 49.509 63.3193 49.9084C63.5036 50.3078 63.3677 50.6789 63.3677 50.6789C63.3677 50.6789 63.2399 51.0775 62.5996 51.4454C61.9623 51.8163 60.2249 52.7135 60.2249 52.7135C60.2249 52.7135 58.0626 53.9097 54.774 54.1999C54.774 54.1999 51.7755 54.4552 50.0508 54.5417C50.0298 54.5436 50.0081 54.5448 49.9863 54.5458C50.0237 53.4399 49.9756 52.4551 49.8613 51.587V51.5849C49.785 51.0066 49.6783 50.4802 49.5488 50.0034V50.0013C49.4841 49.7634 49.413 49.5391 49.3371 49.3259V49.3238C49.2612 49.1106 49.1789 48.9099 49.0932 48.7211V48.719C49.0073 48.5297 48.9175 48.3524 48.8231 48.1872C48.0338 46.7962 46.7451 46.061 46.1097 45.7502C45.9511 45.6722 45.7395 45.6054 45.4969 45.554C45.2543 45.5026 44.9805 45.4671 44.6946 45.4529C44.343 45.4354 43.9829 45.4649 43.6342 45.5216C43.4156 45.5572 43.1966 45.5941 43.0032 45.6652L43.0012 45.6673C42.752 45.7591 42.5502 45.845 42.3843 45.9343L42.3823 45.9363C42.2171 46.0254 42.0865 46.1161 41.975 46.2154C41.9074 46.2756 41.856 46.348 41.7997 46.4156C41.7624 46.4603 41.7175 46.4981 41.6827 46.5471C41.6819 46.5483 41.6816 46.5499 41.6807 46.5511C41.5942 46.6734 41.512 46.8098 41.4206 46.9677C41.4198 46.9692 41.4195 46.9703 41.4186 46.9718C41.2349 47.2883 41.03 47.4368 40.8723 47.5057C40.7137 47.5749 40.6021 47.5643 40.6021 47.5643C40.6021 47.5643 39.2035 47.6076 38.7495 45.4671C38.4338 43.9675 38.5219 42.9742 38.6891 42.3567C38.7306 42.2032 38.7758 42.0735 38.8221 41.9643L38.8242 41.9623C38.8703 41.8537 38.9163 41.766 38.9572 41.6973L38.9593 41.6953C39.0408 41.559 39.099 41.5005 39.1004 41.4991L39.1025 41.497C39.1025 41.497 39.1429 41.4499 39.2093 41.3878C39.3236 41.281 39.5598 41.128 39.9532 41.0076C40.0998 40.9627 40.2473 40.917 40.443 40.8903C41.4755 40.7486 42.1393 41.003 42.9306 41.1997C43.6621 41.3836 44.2357 41.3085 45.0997 40.9166C45.1692 40.8851 45.2277 40.8675 45.3013 40.8316C45.5484 40.7109 45.7605 40.5713 45.9363 40.4069C46.0241 40.325 46.1045 40.2366 46.1742 40.142L46.1762 40.1399C46.3154 39.9505 46.4152 39.7341 46.4806 39.4867C46.5793 39.1134 46.5954 38.6702 46.521 38.1378C46.3288 36.7635 46.2764 36.4407 45.0655 32.2708C47.7172 31.9043 49.5243 31.588 52.7339 30.841C52.7339 30.841 55.7146 30.3108 56.3363 29.217C56.6971 28.5776 57.3509 27.7029 56.2939 26.8225C56.2939 26.8225 56.1688 26.6656 55.5158 26.5171C54.8628 26.3685 54.3625 26.2684 53.8124 25.874C53.2613 25.4775 53.2721 25.0185 53.2721 25.0185C53.2721 25.0185 53.2255 24.5807 54.1188 24.076C54.1188 24.076 54.9533 23.4637 56.6104 22.9374C57.4399 22.6753 58.3341 22.6032 59.0213 22.596Z" fill="#DCDCDD"/>
<path id="path4837_5" d="M65.0097 35.5989V35.9875L64.9919 36.1282C64.8301 37.4044 64.6683 38.6814 64.5037 39.9547C64.4106 40.0059 64.3939 40.0245 64.2321 40.0315C63.6791 39.1747 62.8231 38.5048 62.2152 37.6972C62.0191 37.4375 61.7602 36.9555 61.4386 36.8404C61.3935 37.3145 61.2464 37.8162 61.1298 38.2411C60.8719 39.1697 60.7552 40.0915 60.5454 41.0053L60.5422 41.007C60.4465 41.0589 60.4091 41.0791 60.2355 41.083C59.9453 40.6118 59.5119 40.2351 59.1903 39.8003C58.3627 38.6799 57.4224 37.6795 56.5919 36.5689C56.3938 36.3052 56.0889 36.0918 55.8928 35.8301C55.4447 35.235 54.8858 34.3536 54.1082 34.1165C53.8102 34.026 53.4876 34.1115 53.1777 34.1165C53.1208 34.0172 53.0826 33.9936 53.061 33.844C53.0993 33.8303 53.1385 33.8175 53.1777 33.8047C53.4719 33.5893 53.9876 33.6434 54.3808 33.5332C55.1388 33.3197 55.8418 32.9518 56.6292 32.8308C56.6439 32.8712 56.6556 32.9095 56.6694 32.9469C56.7409 33.0482 56.7223 33.063 56.7076 33.181C56.4409 33.2135 56.1605 33.424 56.0879 33.6493C56.0193 33.7358 56.0095 33.8352 56.0095 33.9995C56.9419 35.1819 57.9421 36.2629 58.8412 37.463C59.3099 38.0877 60.0237 38.6258 60.3924 39.3321C60.4238 39.2917 60.4081 39.3212 60.4326 39.2534C60.5915 39.0045 60.5414 38.5992 60.6258 38.2815C60.7895 37.6617 60.9768 36.9417 61.0141 36.257C60.7405 36.0623 60.516 35.7081 60.315 35.4386C59.9345 34.933 59.3384 34.5041 58.9579 33.9995C58.7059 33.663 58.3304 33.1732 57.9117 33.0256C57.6499 32.9331 57.3194 33.0246 57.0969 32.9863V32.9085C57.0616 32.8584 57.0616 32.8131 57.0576 32.7148H57.0969V32.6744C58.2333 32.6144 59.1118 32.0449 60.1228 31.8963C60.1875 32.0055 60.2238 32.0281 60.2385 32.2082C59.912 32.3291 59.5639 32.4393 59.5394 32.8692C59.6551 32.9912 59.71 33.1633 59.8119 33.2981C59.9531 33.4269 60.0963 33.5568 60.2385 33.6866C60.5856 34.0555 61.0062 34.4677 61.2847 34.8936H61.3239V34.8159C61.4906 34.567 61.4367 34.1254 61.5181 33.8047C61.7808 32.758 61.9877 32.0144 60.6248 32.0911C60.6111 32.0537 60.5993 32.0134 60.5856 31.975C60.5562 31.9298 60.5571 31.9091 60.5464 31.8196C60.8964 31.6386 61.3445 31.6691 61.7897 31.5481C62.2819 31.4163 62.7329 31.1605 63.2653 31.0808C63.2791 31.1202 63.2889 31.1586 63.3016 31.1979C63.3369 31.2491 63.3389 31.2943 63.3408 31.3927C63.0996 31.5107 62.7496 31.6465 62.6045 31.8599C62.3495 32.2347 62.3456 32.7098 62.2172 33.2233C62.0436 33.906 61.8259 34.692 61.7897 35.4406C62.0603 35.653 62.2789 35.9836 62.4878 36.26C62.8339 36.7174 63.3458 37.0843 63.6919 37.5437C63.8458 37.7473 63.9988 38.0533 64.2351 38.1664V38.0877C64.4126 37.8004 64.3047 37.0391 64.389 36.6485C64.6371 35.5183 64.5322 34.2119 64.7783 33.0679C64.8499 32.7266 64.8675 31.8363 64.7401 31.5884C64.542 31.2077 64.1341 31.3828 63.6919 31.2382C63.6796 31.1699 63.6682 31.0999 63.6568 31.0305L63.6527 31.0051C63.6919 30.9923 63.7301 30.9785 63.7693 30.9657C63.9978 30.8202 64.3174 30.8851 64.6234 30.8103C65.0283 30.711 65.8382 30.5624 66.1353 30.3441C66.2138 30.3588 66.2089 30.3519 66.251 30.3824C66.2815 30.4218 66.2648 30.3942 66.2903 30.4601C66.3442 30.5487 66.3108 30.59 66.2903 30.6943C65.2205 30.9559 65.5558 31.9986 65.3176 33.0689C65.144 33.8627 65.1852 34.811 65.0097 35.5989Z" fill="#373334"/>
</g>
<g id="3/2">
<path id="path4575" d="M50.7421 8.42709C51.5171 8.46347 51.8878 8.54217 52.0907 8.6536H52.0928C52.132 8.67494 52.1855 8.84309 52.1875 8.84977L52.1795 9.94591L52.1816 9.90546C52.1816 9.90546 52.1635 10.077 52.2118 10.2776C52.2597 10.4765 52.4113 10.7761 52.7299 10.9167C52.7631 10.9339 52.7948 10.9519 52.867 10.9773C52.969 11.0133 53.1108 11.0513 53.3024 11.0825C53.6855 11.1448 54.2654 11.1766 55.1288 11.0886H55.1469L55.1651 11.0845C55.1651 11.0845 55.9013 10.9546 57.0277 10.6194C58.1307 10.2899 61.1333 9.39616 61.4788 9.3048C61.5034 9.29835 61.5425 9.2853 61.5675 9.27851C61.6951 9.54263 61.8687 9.89325 62.3033 10.6376C63.1907 12.1662 64.7319 12.7561 65.3977 12.6862C65.9801 12.6253 66.981 12.3506 67.3712 11.9198C67.7585 11.4879 68.1493 11.5436 68.1493 11.5436C68.9955 11.4895 69.203 12.1986 69.8991 13.202C70.5933 14.2053 70.1652 14.9857 70.1652 14.9857C69.7044 15.5986 69.1884 15.4734 68.7158 15.376C68.3609 15.3013 68.3243 15.2595 67.9135 15.1799C66.6349 15.0117 66.206 15.9605 66.206 15.9605C65.2892 17.3819 66.3713 18.4117 66.3713 18.4117C66.3713 18.4116 68.794 21.6669 70.639 23.6739C69.244 24.1548 67.4337 24.764 67.4337 24.764C67.4337 24.764 64.9714 25.6762 63.3516 25.8986C61.7337 26.1189 61.3759 25.8843 61.1563 25.664C60.9337 25.4436 61.1926 24.6689 61.1926 24.6689C61.1926 24.6689 61.8549 23.3145 61.5353 22.6122C61.2166 21.9098 59.1304 21.7264 59.096 21.7264C59.0568 21.7264 56.8231 21.467 54.7317 22.6445C52.8745 23.6892 52.6311 24.2584 52.6311 24.2584C52.6311 24.2584 52.0399 25.1809 52.742 26.0947C53.5333 27.1286 54.5845 27.2232 54.5845 27.2232C54.5845 27.2232 55.5849 27.3013 55.8182 27.5974C56.0526 27.8915 55.8928 28.2122 55.8928 28.2122C55.8928 28.2122 55.5628 29.1218 53.7096 29.5025C53.7096 29.5025 50.5914 30.4208 44.7793 31.2498C43.6203 27.0485 43.5456 24.402 43.5456 24.402C43.4519 23.5296 43.5843 23.1985 44.0112 22.962C44.1747 22.8946 44.4194 22.816 44.749 22.7679L45.4546 22.7335L45.4667 22.7314C45.5865 22.7389 45.7104 22.7443 45.8437 22.7537C45.9532 22.7604 45.9267 22.76 46.1299 22.778H46.132C46.4056 22.801 46.8002 22.8 47.2367 22.6768C47.4657 22.622 47.6717 22.5509 47.8394 22.4564C48.2542 22.2242 49.3915 21.6007 49.313 20.3288C49.2366 19.0579 48.2265 17.5507 47.4 17.0323C47.2954 16.9667 47.1867 16.914 47.0754 16.8705C46.9666 16.8279 46.8553 16.7947 46.7428 16.7714C46.7414 16.7712 46.7401 16.7717 46.7388 16.7714C46.285 16.6785 45.8144 16.7371 45.4184 16.8827C45.2186 16.9561 45.0374 17.0492 44.8882 17.1597C44.294 17.6024 44.0586 18.173 43.6968 18.355C43.4263 18.4896 43.0709 18.7564 42.6808 18.8282C42.5503 18.8515 42.4154 18.8528 42.2796 18.8201C41.7364 18.6903 41.7097 17.4712 41.4773 16.096C41.3346 15.2508 41.2296 14.6421 41.1628 14.2596C41.5602 14.2184 42.4511 14.13 44.229 13.6064C45.3764 13.2696 46.1451 12.9641 46.6339 12.7388C47.1228 12.5135 47.3597 12.3465 47.3597 12.3465L48.1174 11.8025L47.2405 11.4849C47.2405 11.4849 47.1111 11.4787 47.0873 11.2463C47.0393 10.7671 47.0006 10.0976 47.0006 10.0976L46.9986 10.0693L46.9946 10.0389C46.9946 10.0389 46.9849 10.0402 47.0147 9.91557C47.0446 9.79097 47.1217 9.59046 47.3514 9.33312C47.8013 8.82809 48.4555 8.62884 48.8189 8.54843C49.1405 8.47839 49.995 8.39382 50.7421 8.42709Z" fill="#DCDCDD"/>
<g id="path4837_6">
<path d="M51.1244 17.8905C50.9283 17.8256 50.7342 17.7617 50.54 17.6968C50.1674 17.0859 49.9831 16.3776 49.5713 15.8277C49.4536 15.6723 49.133 15.7107 49.0281 15.5562C49.2222 15.4412 49.5134 15.2562 49.8429 15.2838C49.9792 15.2965 50.2037 15.4087 50.3851 15.3634C50.6234 15.3025 51.7461 14.9778 51.8981 14.8568C51.9294 14.8175 51.9128 14.846 51.9393 14.7781C51.7088 14.5175 51.7186 14.0069 51.2794 13.9607C51.2058 13.9144 51.0715 13.9371 51.046 13.9213C51.0254 13.8938 50.9872 13.9194 51.0078 13.8446H51.046C51.1088 13.64 51.2244 13.6154 51.3549 13.4925L51.3612 13.4923C51.7708 13.4795 52.364 13.461 52.5972 13.6479C52.6286 13.6931 52.6266 13.7148 52.6364 13.8033C52.4511 14.0207 52.6648 14.5578 52.9462 14.5814C53.2483 14.3788 53.7179 14.4211 54.0699 14.2715C54.2994 14.1742 54.5308 13.9391 54.6916 13.7649C54.9897 13.7669 55.979 14.126 56.0506 14.3109H56.0888C55.7584 15.0378 56.1104 15.872 55.8947 16.7229C55.527 18.1709 54.8289 19.3297 53.7983 20.1107C53.5434 20.3035 53.363 20.6714 52.9845 20.7324V20.6941C54.0062 19.7153 54.4945 18.4365 54.8847 16.8006C54.9867 16.3776 54.871 14.9464 54.7318 14.7378C54.6739 14.6503 54.6014 14.6365 54.4602 14.6217C54.219 14.7781 53.865 14.7565 53.5669 14.8539C52.9315 15.0614 52.2167 15.269 51.5872 15.4766C51.3294 15.5631 50.6861 15.6281 50.6185 15.8661C50.795 16.0137 50.8558 16.3117 50.9666 16.5281C51.1911 16.9531 51.5393 17.2079 51.548 17.8512C51.4451 17.8886 51.2803 17.8925 51.1244 17.8905Z" fill="#373334"/>
<path d="M58.5303 17.6545C58.4391 17.4754 58.4391 17.2403 58.2577 17.1488C57.9959 17.5482 56.8732 18.6204 56.3565 18.705V18.6677H56.3957C56.5869 18.3745 56.9272 18.2004 57.1311 17.926L57.1478 17.9037C57.6677 17.2121 58.4468 16.1756 58.3352 15.0457C58.2205 15.0132 58.1891 14.9926 58.1411 14.8913C58.2224 14.8785 58.3215 14.8568 58.3754 14.8155C58.8382 14.7939 59.4236 14.8401 59.4628 15.2434C59.2 15.4156 59.2049 15.6743 59.0745 15.9822C59.0127 16.1288 58.8725 16.2694 58.8039 16.4111C58.7735 16.4721 58.747 16.4485 58.8039 16.4878C58.8863 16.5606 58.9088 16.5232 58.9588 16.6442C59.0186 16.7495 58.9382 16.8085 58.9588 16.9157C58.9863 17.0938 59.1108 17.3535 59.1902 17.5384C59.4501 18.1296 59.9001 18.7444 59.9658 19.4851C59.8658 19.5412 59.8109 19.5805 59.6579 19.6012C59.4618 19.4527 59.1628 19.4212 59.0735 19.1733V18.8624C58.9588 18.4611 58.7117 18.0194 58.5303 17.6545Z" fill="#373334"/>
</g>
</g>
<g id="2/6">
<path id="path4603" d="M60.3134 89.7739C60.4075 90.4192 60.2106 90.6361 60.0654 90.8761C59.9105 91.1309 59.4868 91.4587 59.6985 92.041C59.9103 92.6214 61.3496 92.4364 62.1821 92.1826C63.0165 91.9268 63.7226 91.6998 64.2746 91.5011C64.8256 91.3043 64.9801 91.584 64.9801 91.584C64.9801 91.584 65.2197 91.7546 64.4157 92.1806C63.6097 92.6055 62.1251 92.8038 61.4201 92.8884C60.7122 92.974 60.9248 92.8461 59.8659 93.214C58.8049 93.5839 59.7973 93.9097 59.7973 93.9097C60.3625 94.0575 60.887 94.1384 61.3637 94.1807C57.712 95.0419 53.9064 95.5034 49.9921 95.5034C48.0007 95.5034 46.0395 95.3787 44.1097 95.1495C42.2803 94.8512 40.8827 94.7182 39.5861 94.3708C39.539 94.3754 39.494 94.3657 39.447 94.3668C38.9659 94.2621 38.4875 94.1517 38.0117 94.0331C37.7603 93.9416 37.2453 93.7343 37.4392 93.4769C37.5627 93.3146 37.5723 93.1468 37.5017 92.9835C38.5834 93.0519 40.0095 93.125 40.0095 93.125C40.0095 93.125 42.9277 93.2347 44.525 93.1068C45.2437 93.0459 45.0209 93.4223 45.0209 93.4223C45.0209 93.4223 44.8127 93.7699 45.2245 93.9421C45.2245 93.9421 45.9804 94.3742 48.5023 94.0958C51.0243 93.8145 51.5786 93.2484 51.5786 93.2484C51.5786 93.2484 51.8712 92.9771 51.2339 92.8561C50.7328 92.7587 50.7339 92.8077 50.0828 92.7408C49.4308 92.6749 49.1041 92.5373 49.5365 92.4212C49.9689 92.3071 50.6876 92.2493 50.6876 92.2493C50.6876 92.2493 52.8913 91.9421 54.673 91.4788C54.673 91.4788 56.5732 91.0294 58.4588 90.3645C59.201 90.1048 59.828 89.9127 60.3114 89.776L60.3134 89.7739Z" fill="#DCDCDD"/>
<path id="path4837_7" d="M52.4404 94.0962C52.4267 94.1346 52.4159 94.1749 52.4021 94.2113C52.6963 94.2379 52.6198 94.3795 52.7895 94.4848C53.0816 94.6638 53.5994 94.8252 53.9533 94.9107V94.9904H53.6807C53.6258 95.0248 53.5533 95.0248 53.4484 95.0278C53.4493 94.9038 53.5141 94.9757 53.4101 94.9107C53.0414 94.6314 52.3276 94.8075 51.8962 94.9107C51.6226 94.9776 51.3138 94.8891 51.1608 95.0662C51.1196 95.1016 51.1559 95.0642 51.1235 95.1055H51.2383C51.5618 94.897 52.8816 94.9481 53.4101 94.9491V95.0278H53.0993C52.8963 95.1557 52.559 95.0455 52.2845 95.1055C51.8227 95.2039 51.3608 95.259 50.8117 95.26C50.799 95.2334 50.7853 95.2059 50.7725 95.1822C50.8362 95.134 50.85 95.1006 50.8892 95.0278C50.7686 95.0317 50.6431 95.0317 50.5793 94.9884C50.5489 94.9491 50.5646 94.9776 50.5401 94.9107C50.747 94.8743 50.9549 94.833 51.1618 94.7957C51.1226 94.7641 51.151 94.7809 51.0843 94.7573C50.851 94.6009 49.5831 94.772 49.4537 94.8743H49.5312C49.6822 94.9629 50.0852 94.9324 50.2303 94.9884V95.0278H50.1911V95.0662C49.9057 94.9757 49.4733 94.9698 49.2233 94.9107C49.1792 94.8291 49.1664 94.8419 49.1448 94.716C49.238 94.6668 49.2537 94.6471 49.4155 94.6383C49.5008 94.5861 49.6351 94.6294 49.7655 94.5999C49.9195 94.5665 50.7166 94.4032 50.8912 94.4838V94.5615C51.2118 94.7347 52.0982 94.8291 52.4414 94.5999C52.3992 94.5665 52.4394 94.6029 52.4031 94.5615C52.1707 94.5242 51.9393 94.4838 51.706 94.4464V94.3687C51.7442 94.3559 51.7825 94.3431 51.8207 94.3294C51.9266 94.2625 52.1433 94.2841 52.2482 94.2123C51.1745 94.2094 50.0195 94.1799 48.988 94.2517V94.292H49.0282C49.3419 94.4897 50.091 94.1612 50.5019 94.292V94.3687H50.4254C50.1548 94.5645 48.7958 94.5537 48.5624 94.3687C48.531 94.3294 48.5487 94.3579 48.5232 94.292C48.6869 94.2054 48.9066 94.114 49.1046 94.0569C49.2645 94.0136 49.4498 94.0598 49.5704 93.9792C50.5254 94.0185 51.4834 94.0569 52.4404 94.0962Z" fill="#373334"/>
</g>
<g id="2/5">
<path id="path4597" d="M25.6101 79.2918C25.6101 79.2918 30.2282 79.4536 31.4764 79.4536C32.7236 79.4536 32.4903 80.1089 32.4903 80.1089C32.4903 80.1089 32.4206 80.4616 32.2706 80.7439C32.1186 81.0262 31.7569 82.0864 32.1295 82.651C32.1295 82.651 32.7033 84.0563 36.4253 84.1557C36.4253 84.1557 39.6831 84.4176 41.9569 83.4782C44.2307 82.5397 42.1787 81.2394 42.1787 81.2394C42.1787 81.2394 41.4014 80.7671 41.0719 80.5134C40.7699 80.2822 40.8912 80.0386 40.953 79.8763C41.0118 79.7169 41.2445 79.5238 41.5054 79.3929C41.7662 79.2611 42.7191 78.7478 46.7648 77.6982C50.8085 76.6466 53.2237 76.5353 53.2237 76.5353C53.2237 76.5353 53.2433 76.5327 53.264 76.5313C53.6532 77.4754 53.9498 77.9965 54.54 78.6426C55.1764 79.3361 56.1799 79.8739 57.3663 80.3293C58.5547 80.7838 58.0154 81.5913 58.0154 81.5913C57.3369 83.0639 55.3167 83.1232 54.7235 83.193C54.1312 83.2629 52.8888 83.3761 51.7279 83.6319C50.5689 83.8876 49.4811 84.0432 48.8311 84.7948C48.1829 85.5463 48.4375 86.3244 48.819 87.1468C49.1994 87.9682 50.2168 88.4072 51.615 88.3522C53.0132 88.2971 53.9207 87.8858 54.7678 87.5169C55.615 87.147 57.0832 86.7206 57.5215 86.5947C57.9588 86.4678 58.5538 86.2131 58.9911 86.8515C59.4647 87.5411 59.9661 88.5215 60.1946 89.2622C60.1946 89.2622 59.0478 89.5447 57.072 90.3139C55.0963 91.0832 51.2159 91.7175 51.2159 91.7175C51.2159 91.7175 48.7249 92.0058 48.4944 92.3343C48.265 92.6599 48.6678 92.8258 48.6678 92.8258C48.6678 92.8258 49.0232 93.0428 50.3067 93.1029C50.3067 93.1029 50.7488 93.1029 50.7684 93.1393C50.785 93.1786 50.8121 93.2074 50.5365 93.295C50.2561 93.3815 49.6996 93.603 47.8131 93.841C45.9148 94.083 45.9544 93.7763 45.9544 93.7763C45.9544 93.7763 45.9447 93.7007 46.031 93.564C46.1164 93.4321 46.0389 93.1994 45.7428 93.0361C45.7428 93.0361 45.3332 92.7675 43.9507 92.7793C42.5701 92.7881 39.8198 92.7962 37.2499 92.6438C37.2394 92.6431 37.2297 92.6384 37.2196 92.6356C37.0598 92.49 36.8559 92.3599 36.6108 92.2291C35.9254 91.8651 32.9525 89.894 32.0327 89.2703C31.115 88.6476 29.5092 87.5978 28.8013 87.8162C28.2581 87.9854 28.3357 88.2049 28.0131 88.3643C27.6885 88.5187 27.3385 88.415 26.5375 87.9861C25.7354 87.5602 25.141 87.273 23.5761 85.7837C22.3554 84.618 25.1404 85.6664 25.1404 85.6664C25.1404 85.6664 25.7477 85.9237 25.4771 85.2882C25.2055 84.6528 23.8343 82.9929 22.542 81.656C21.4948 80.5769 20.9044 79.8276 20.1582 78.7377C23.6861 79.2482 25.6101 79.2918 25.6101 79.2918Z" fill="#DCDCDD"/>
<path id="Subtract_4" d="M37.6592 85.6533C41.034 85.5687 43.9472 86.9424 45.9219 88.2978C46.5199 88.706 46.9966 89.1292 47.3584 89.7754C47.4447 89.9318 47.6867 90.3155 47.5117 90.5889C47.3548 91.0904 46.7844 91.0909 46.2334 91.2129C45.11 91.4596 43.875 91.1365 43.1289 90.7461C42.8475 90.5956 42.6067 90.3074 42.3135 90.1992V90.2363C42.8749 90.8342 42.1885 91.3573 41.6944 91.4834C41.3973 91.5611 40.921 91.5463 40.6465 91.4834C40.3319 91.4147 40.0782 91.4868 39.793 91.4072C38.9037 91.1544 38.3688 90.8755 37.7354 90.3955C37.4197 90.1575 37.0789 89.8582 37.1924 89.3076C37.916 88.8305 39.2309 89.0429 39.8682 89.4609C40.0299 89.5682 40.1235 89.7529 40.2569 89.8906C40.2441 89.9673 40.2296 90.0464 40.2168 90.124C39.9847 90.2596 39.8119 90.3213 39.4033 90.3174V90.2441C39.6276 90.253 39.7955 90.235 39.8682 90.0859C39.8985 90.0457 39.8917 90.0499 39.9082 89.9717C39.2631 89.3599 38.6956 89.3031 37.5791 89.3867C37.5204 89.4751 37.426 89.5854 37.3467 89.6592C37.3692 89.721 37.3798 89.7542 37.3867 89.8545C37.5229 89.9627 37.6285 90.1438 37.7744 90.2441C38.2991 90.5992 39.7074 91.0609 40.6065 90.8652C41.1535 90.7472 41.7541 90.8694 41.9268 90.3994C42.0902 90.2106 41.9363 89.9241 42.042 89.7373C42.5617 90.2487 44.1235 90.8942 45.2627 90.6338C45.7558 90.5217 46.2717 90.5594 46.4278 90.1269C46.5415 89.9696 46.5071 89.6557 46.4278 89.4639C46.214 88.9505 45.7273 88.4964 45.3028 88.1797C43.6016 86.9097 41.3734 86.0763 38.3965 86.1943V86.2314H38.4756C38.9179 86.6298 39.8895 86.7481 39.6787 87.5557C39.4052 87.6502 38.9871 87.8719 38.5137 87.751C37.7205 87.5512 36.2953 87.0348 36.3028 86.0791C36.5067 85.9493 36.6796 85.8043 36.9619 85.7295C37.1658 85.6735 37.4954 85.7554 37.6592 85.6533ZM37.503 86.1982C37.254 86.3485 36.9507 86.249 36.8448 86.5478C36.8144 86.5872 36.8194 86.5835 36.8047 86.6641C36.8861 86.7683 36.9283 86.934 37.0362 87.0127C37.3813 87.2704 38.8027 87.7774 39.0547 87.0918C39.0892 87.0425 39.0909 86.9956 39.0938 86.9004V86.8965C38.9604 86.7932 38.8814 86.5993 38.7442 86.5068C38.4402 86.2993 37.9951 86.2002 37.503 86.1982Z" fill="#373334"/>
</g>
<g id="2/4">
<path id="path4569" d="M47.3777 76.6022C44.8068 77.2298 42.3537 77.7329 40.6084 78.8612C40.6084 78.8612 39.302 79.7313 40.054 80.5783C40.8041 81.4262 41.5881 81.7897 41.5881 81.7897C41.5881 81.7897 42.0516 81.9934 42.0437 82.1193C42.0349 82.2826 42.028 82.4232 41.6829 82.6229C41.6829 82.6229 40.3163 83.426 37.6551 83.4703C34.994 83.5136 33.8213 83.489 33.0408 82.7847C32.3956 82.2033 33.2021 80.9706 33.2021 80.9706C33.2021 80.9706 33.5256 80.3681 33.2021 79.5408C32.8785 78.7164 31.0269 78.7015 31.0269 78.7015L28.4627 78.57C25.428 78.4903 21.4208 78.1512 19.6372 77.9289C19.6372 77.9289 19.6256 77.9258 19.605 77.9228V77.9207C19.5873 77.8961 19.5712 77.8695 19.5546 77.8459C19.5546 77.8459 17.7175 74.5234 17.9116 73.3036C17.9116 73.3036 17.977 72.4868 19.1272 72.1347C19.9283 71.8878 19.824 72.6694 22.1792 73.0953C22.1792 73.0953 24.2089 73.6424 24.7394 72.163C25.2679 70.6825 24.183 68.826 24.183 68.826C24.183 68.826 22.762 66.2133 21.002 66.114C20.0705 66.0619 20.3246 66.6896 18.9196 67.0241C18.9196 67.0241 17.0443 67.2049 16.4501 66.0776C15.7304 64.7122 15.4297 63.1576 15.4543 62.1198C15.4758 61.1361 15.5074 61.0581 15.5712 60.7708C15.6153 60.5682 15.7594 60.1956 15.8201 59.6585C16.6163 59.57 17.8964 59.4296 19.3711 59.2703C21.8499 59.0037 23.5155 58.7347 25.0559 58.9669C26.5983 59.1981 27.0939 60.4068 27.0939 60.4068C27.0939 60.4068 27.2 60.7145 26.846 60.9407C26.5038 61.1611 26.1118 61.48 25.9167 61.8164C25.7216 62.1568 25.514 62.8674 26.0739 63.8186C26.6348 64.7659 28.1728 65.3836 29.4828 65.2262C30.7918 65.0718 32.7538 64.5665 33.9157 64.2635C35.1776 63.932 36.2924 63.3085 36.4375 62.316C36.5817 61.3234 34.9337 60.059 34.9337 60.059C34.9337 60.059 34.1368 59.4575 34.0407 59.3208C33.9426 59.1841 34.1374 59.1246 34.1374 59.1246C34.1374 59.1246 35.0679 58.9001 35.4679 58.7181C35.864 58.5312 36.9605 58.0836 38.7558 57.5209C40.5511 56.9562 44.2551 56.2933 44.2551 56.2933C44.2551 56.2933 46.303 55.9649 48.8533 55.7584C48.8464 56.0004 48.841 56.2459 48.8312 56.5036C48.691 60.3164 49.5387 62.2735 49.5387 62.2735C50.0202 63.3231 50.5403 64.0728 51.2482 64.5548C51.9532 65.0358 52.917 64.7082 53.2278 64.5548C53.5377 64.3974 54.3984 64.0017 55.1328 63.5335C55.8672 63.0652 55.841 62.8673 56.7294 62.045C57.6187 61.2256 58.7654 61.4504 58.7654 61.4504C58.7654 61.4504 59.8532 61.4786 60.4749 62.7407C61.0975 64.0028 60.9704 65.8016 60.8115 66.4538C60.6566 67.106 60.3743 67.5326 59.7673 67.4185C59.1594 67.3054 58.1565 67.2037 57.7897 67.19C57.422 67.1762 56.3876 67.1412 55.4453 67.3881C54.5255 67.6292 53.2814 68.2956 52.0969 70.2256C51.1762 71.7198 51.6291 73.1884 51.8409 73.7688C52.0066 74.2233 52.4629 74.8564 52.8629 75.6355C51.6049 75.788 49.477 76.0937 47.3777 76.6022Z" fill="#DCDCDD"/>
<path id="Subtract_5" d="M30.7148 65.958C31.2737 65.9491 32.1063 66.4894 32.1123 67.0068C31.4388 67.4465 31.0828 68.087 30.6387 68.7598C30.4632 69.0232 30.1635 69.2965 30.0957 69.6543C30.4769 69.8412 30.7808 70.2187 31.1807 70.3555V70.3154C31.375 70.1576 32.1149 68.7462 32.1895 68.4463C32.2461 68.2182 32.0545 68.0429 32.1123 67.9014C32.161 67.8045 32.0949 67.875 32.1895 67.8252C32.5699 67.5804 33.6012 68.3225 33.625 68.6816C32.7358 69.1223 32.2874 70.058 31.7227 70.8223C31.4373 71.2117 30.8826 71.5963 30.7148 72.0683H30.8301C31.0605 71.9142 31.4023 71.9264 31.6855 71.8349C32.0992 71.6973 32.5071 71.4742 32.9668 71.4062V71.29C32.7335 71.1542 32.4349 70.8973 32.3438 70.6279H32.3818V70.5898C33.1907 70.7442 33.9111 71.1498 34.4004 71.6396C34.4151 71.8609 34.4277 72.0814 34.4404 72.3017C34.4022 72.3165 34.3634 72.3271 34.3242 72.3389C34.1007 72.4579 33.4547 71.8341 33.3154 71.6787C32.7958 71.9108 32.2627 72.1973 31.7627 72.456C31.8009 72.4875 31.7732 72.4715 31.8408 72.4941C32.0594 72.7026 32.3782 72.7726 32.54 73.039C32.6047 73.3507 32.6687 73.6649 32.7324 73.9746C32.9501 74.7015 33.3688 75.5891 33.1982 76.5039H32.9268C32.6857 76.15 32.4176 75.9992 32.2686 75.4941C32.1833 75.2079 32.302 74.848 32.2285 74.5205C32.059 73.7722 31.9323 73.1145 31.4922 72.6543C31.011 72.8588 30.6086 73.0327 30.2881 73.3926C29.8107 73.2852 29.336 72.798 29.3203 72.2246C29.3791 72.2039 29.3864 72.2003 29.4756 72.1855C29.5687 72.2534 29.7005 72.2646 29.8633 72.2646C30.179 71.7807 30.8257 71.3503 30.9492 70.706C30.0591 70.3107 29.3522 70.0933 28.6992 69.459V69.3808C28.7933 69.3486 28.9391 69.3418 29.085 69.3437C29.185 69.4136 29.615 69.4484 29.668 69.4189C29.9127 69.1563 29.9819 68.7299 30.1348 68.3711C30.3671 67.8153 30.6557 67.1745 30.793 66.541C30.837 66.3306 30.7169 66.1969 30.7148 65.958ZM35.1025 66.3867C35.58 66.075 36.5028 67.0461 36.6934 67.2431C36.6796 67.308 36.667 67.3736 36.6533 67.4385C35.8925 67.6716 35.4962 68.8262 34.9463 69.3457C34.9707 69.4133 34.9541 69.3836 34.9854 69.4219C35.0594 69.4957 35.322 69.6277 35.4121 69.6562C35.793 69.7709 37.1916 69.2638 37.3125 69.1113C37.4615 68.9233 37.8468 67.6848 37.7402 67.2822C37.7108 67.176 37.6446 67.0811 37.624 66.9316C37.7779 66.8512 38.0247 66.8496 38.2822 66.8535C38.4567 66.9872 38.72 67.0002 38.9023 67.1279C38.9798 67.2302 39.0563 67.3352 39.1357 67.4375V67.4765H39.0967C39.0202 67.689 38.8178 67.6679 38.708 67.8271C38.5483 68.0554 38.3684 68.4707 38.3223 68.7607H38.3965C38.7092 68.4608 39.1561 68.406 39.7158 68.4492C39.7952 68.5702 39.8505 68.5641 39.8721 68.7607C39.8401 68.7997 39.8583 68.7725 39.833 68.8389C39.5085 69.0139 39.0816 69.1817 38.707 69.3056C38.4668 69.3862 38.0854 69.3776 37.9707 69.5771C38.508 69.7237 38.3109 70.1407 38.4746 70.668L38.4863 70.6631C39.004 70.4615 39.2678 70.3594 39.8701 70.5117C39.8974 70.5615 39.9123 70.5937 39.9473 70.6289C39.9228 70.6957 39.9395 70.6658 39.9092 70.706C39.6905 71.008 39.0085 71.0833 38.5908 71.1738V71.3291C38.7866 71.6203 38.6839 72.1807 38.9004 72.456C38.9494 72.4905 38.9957 72.4902 39.0938 72.4941C39.44 72.2564 40.2014 72.2727 40.6455 72.3799C40.7171 72.492 40.7539 72.4928 40.7617 72.6914C40.3716 72.9127 39.64 72.9891 39.0566 73.0019C39.0713 73.6638 39.3825 74.1568 39.4434 74.789C39.6246 74.7782 39.8061 74.7647 39.9873 74.7519C40.2205 74.691 40.4914 74.5464 40.7236 74.4805C41.249 74.333 42.2201 74.5513 42.2393 75.0596C42.203 75.0743 42.1623 75.0868 42.123 75.1015C41.7935 75.2959 41.1041 75.0472 40.6875 75.1387C39.8082 75.3333 38.8829 75.3189 38.0898 75.5283C37.7997 75.608 37.414 75.5674 37.1963 75.7236C37.1022 75.8839 37.1763 76.0792 37.04 76.1914C36.9657 76.2502 36.9113 76.2629 36.8457 76.2295C36.445 76.1386 36.1362 75.4851 36.0332 75.1055C36.0058 74.6884 35.9796 74.2745 35.9551 73.8584C35.7757 73.0157 35.5934 72.1718 35.4121 71.3291C35.3062 70.9287 35.3436 70.468 35.1406 70.1631C34.9976 70.0343 34.8569 69.9041 34.7139 69.7715C34.2216 69.9495 34.068 70.606 33.4346 70.6699C33.4533 70.1802 33.919 69.8051 34.1328 69.4619C34.4887 68.8884 34.886 68.0587 35.0645 67.3594C35.1526 67.0073 34.9883 66.7562 34.9883 66.4238C35.0254 66.4101 35.0635 66.4004 35.1025 66.3867ZM30.9082 73.7402C31.4374 74.0444 31.4127 75.2727 31.2588 75.9189C31.1346 75.9994 31.103 76.0361 30.8711 76.0361C30.3485 75.2423 30.4576 75.0694 30.793 74.2451C30.8556 74.0869 30.8495 73.873 30.9082 73.7402ZM38.085 73.2734C37.5928 73.3334 37.2855 73.5741 36.6904 73.5859C36.6934 74.1781 36.9577 74.6659 37.0381 75.2217C37.5586 75.2236 38.0451 75.0876 38.5127 74.9873C38.5127 74.9617 38.5127 74.9328 38.5117 74.9082C38.3372 74.6568 38.1153 73.6353 38.085 73.2734ZM33.1211 73.2353C33.5809 73.3288 34.8451 73.8754 34.8662 74.3652C34.9407 74.4773 34.8732 74.6096 34.8281 74.7139L34.8262 74.7148C34.7659 74.735 34.7335 74.7451 34.6328 74.7529C34.4339 74.8441 34.2583 74.6178 34.1279 74.5205C33.8658 74.3234 33.043 73.5717 33.1211 73.2353ZM37.6211 71.5234C37.4064 71.67 36.6369 71.9256 36.3408 71.9521C36.3369 72.2167 36.5161 73.1937 36.6514 73.2754C36.9752 73.0818 37.8315 73.1098 37.9707 72.7695C37.7767 72.4851 37.7346 71.8774 37.6602 71.5234H37.6211ZM37.0391 69.8496C36.9262 69.7759 35.8968 69.9397 35.835 70.0449C36.1036 70.2672 36.1726 71.1112 36.2246 71.5224C36.517 71.4978 37.4616 71.2084 37.543 71.0166C37.3041 70.6477 37.4507 70.0413 37.0391 69.8496Z" fill="#373334"/>
</g>
<g id="2/3">
<path id="path4585" d="M45.406 54.9786C45.406 54.9786 41.1989 55.5782 37.3465 56.7704C34.0754 57.7817 33.4538 58.3398 33.4538 58.3398C33.4538 58.3398 32.7554 58.9246 33.3369 59.7676C33.3369 59.7676 33.6713 60.2972 34.3468 60.8294C35.0185 61.3626 35.5603 61.87 35.4838 62.1278C35.4054 62.3875 35.1996 62.5039 35.1996 62.5039C35.1996 62.5039 34.2582 63.3452 30.4018 63.9944C30.4018 63.9944 27.92 64.475 27.1562 63.7234C26.3933 62.9699 26.7288 62.4655 26.7288 62.4655C26.7288 62.4655 26.7807 62.296 27.3376 61.9478C27.3376 61.9478 28.2687 61.3615 27.9706 60.249C27.6735 59.1325 25.8845 57.7456 23.9509 57.7574C23.9509 57.7574 21.6919 57.763 15.9136 58.5057C15.9136 58.5057 15.9061 58.5058 15.8874 58.5097C15.8894 58.2565 15.8839 57.9862 15.8673 57.6967C15.778 56.0638 15.6595 53.5452 15.4399 52.0785C15.2213 50.6118 14.8181 48.3433 13.4865 48.2764C13.4865 48.2764 12.8281 48.2253 11.8839 49.146C11.0171 49.9881 10.2337 48.4493 10.1906 47.5099C10.1386 46.4072 10.3191 45.2936 10.5917 44.7615C10.8633 44.2293 11.6137 44.2036 11.7549 44.2154C11.898 44.2282 12.2984 44.3825 12.7769 44.6806C13.2554 44.9806 13.9137 44.9821 14.303 44.5916C14.6903 44.204 15.2324 43.7489 15.454 42.0353C15.6737 40.3227 15.673 38.5468 15.4661 36.4191L15.4621 36.4089C16.2516 36.2643 17.5598 36.0449 18.9738 35.9054C21.2544 35.6811 23.6668 35.648 24.6807 35.7759C24.6807 35.7759 25.1553 35.8363 25.0778 36.0065C25.017 36.1403 24.6646 36.415 24.6646 36.415C24.6646 36.415 24.5324 36.4938 24.0235 37.0703C23.5146 37.6467 23.3657 38.2066 23.3442 38.7043C23.3206 39.2011 23.8508 40.6679 25.7128 41.0604C27.5768 41.451 29.7103 40.7247 29.7103 40.7247C29.7103 40.7247 30.9166 40.4462 32.1556 39.3374C32.1913 39.3086 32.2059 39.2908 32.2544 39.2464C32.3168 39.1882 32.3795 39.1391 32.4418 39.0765C32.5032 39.0149 32.5321 38.9509 32.5829 38.8884C32.5967 38.8702 32.6077 38.8548 32.6213 38.8358C33.6436 37.5024 32.4539 36.0206 32.4539 36.0206C32.4539 36.0206 32.2376 35.7216 31.8189 35.5858C31.8189 35.5858 31.6364 35.536 31.7423 35.418C31.8029 35.3504 31.9315 35.1517 32.1979 34.9467C32.3894 34.8257 32.6445 34.6868 33.0849 34.5281C33.0871 34.5275 33.0929 34.5267 33.095 34.526C34.0819 34.2708 36.9997 33.3465 43.9344 32.4268L43.9364 32.4229C43.9377 32.428 44.4394 34.4409 44.8213 35.7436C45.2018 37.048 45.3712 38.3368 45.4281 38.6053C45.485 38.8748 45.4716 39.3545 45.1177 39.6388C44.7657 39.923 43.903 40.1654 43.7207 40.1929C43.5373 40.2214 43.195 40.1511 42.743 39.9947C42.29 39.8393 41.8398 39.8107 41.8398 39.8107C41.8398 39.8107 40.7522 39.6254 39.5942 39.9805C38.4352 40.3337 37.5582 41.5228 37.4876 43.0121C37.4179 44.5004 37.4312 45.2544 38.0117 46.5715C38.5902 47.8897 39.6364 48.6408 40.4267 48.6546C41.219 48.6684 41.8666 48.2586 42.3196 47.6211C42.7697 46.9817 42.8982 46.883 42.8982 46.883C43.4355 46.5859 44.8054 46.4564 45.4987 46.7131C46.1929 46.9669 47.4656 47.7685 48.1677 49.3483C48.7354 50.6251 48.9107 52.0533 48.8803 54.6237C47.2722 54.7575 45.406 54.9786 45.406 54.9786Z" fill="#DCDCDD"/>
<path id="path4837_8" d="M26.4076 50.9338C26.6164 51.219 27.0371 51.5309 27.3773 51.6725C27.5773 51.7571 27.9264 51.7365 28.0362 51.9066C28.2303 52.6208 28.4235 53.334 28.6177 54.0481C27.2606 54.2803 25.9026 54.5144 24.5446 54.7495V54.7102H24.5044C24.3632 53.9586 24.221 53.2041 24.0778 52.4516H24.1582C24.2082 52.4172 24.2543 52.4172 24.3514 52.4132C24.3769 52.6769 24.522 52.9631 24.7397 53.0349C25.0809 53.3576 26.5674 52.9956 27.0282 52.8785C27.2528 52.8225 27.4881 52.8736 27.6489 52.7634C27.6793 52.7231 27.6646 52.7516 27.6881 52.6847C27.6312 52.5942 27.6332 52.4211 27.5724 52.3345V52.2962C25.6633 52.2696 24.3828 50.8344 23.9249 49.2989C23.7258 48.6319 23.6542 47.6404 23.8856 46.9242C24.4749 45.1113 25.7428 44.2083 27.6107 43.6554C27.995 43.5433 28.9461 43.3072 29.4746 43.4213C30.0698 43.5512 30.6385 43.559 31.1415 43.7715C32.2505 44.2417 33.1281 45.0946 33.5467 46.2622C33.6546 46.5642 33.6242 46.8249 33.7017 47.1574C33.8125 47.6414 33.7968 48.3112 33.6615 48.7923C33.5565 49.171 33.3957 49.6009 33.1977 49.9225C32.9055 50.3927 32.4446 50.8905 31.9926 51.2043C31.8661 51.2938 31.1856 51.5899 31.1415 51.6715C31.1425 51.8398 31.1425 52.0099 31.1425 52.1772C31.6641 52.1693 32.2289 52.0208 32.6927 51.9037C33.6213 51.6745 34.4567 51.8348 34.439 50.6593C34.5292 50.6456 34.6214 50.6328 34.7106 50.621V50.6987C34.8185 50.8669 34.7714 51.0961 34.8273 51.3204C34.894 51.5899 35.2136 52.7507 35.1362 52.9169C34.8106 53.1372 34.2017 53.0497 33.7791 53.151C33.2016 53.2897 32.5721 53.3084 31.9554 53.4628C31.5877 53.5533 31.1876 53.6458 30.7523 53.6576C30.6748 52.9051 30.5963 52.1526 30.5199 51.401C31.7485 50.8354 32.3485 49.1316 31.8779 47.2754C31.5141 45.8382 31.0072 44.9687 29.8227 44.3568C29.407 44.1443 28.6971 43.923 28.0372 44.0833C26.7331 44.405 25.9261 45.252 25.5545 46.4973C25.0966 48.0338 25.783 50.073 26.4076 50.9338Z" fill="#373334"/>
</g>
<g id="1/6">
<path id="path4605" d="M33.0405 92.494C34.3196 92.661 35.9259 92.8467 36.4756 92.9025C36.4701 92.9899 36.4432 93.0828 36.3909 93.2039C36.2908 93.4364 36.4886 93.5845 36.6873 93.6852C35.4492 93.3395 34.2374 92.9318 33.0405 92.494Z" fill="#DCDCDD"/>
</g>
<g id="1/5">
<path id="path4595" d="M21.0665 80.6974C21.0665 80.6974 23.4828 83.3801 24.8281 85.0799C24.8281 85.0799 24.9082 85.2358 24.6749 85.0961C24.4415 84.9525 23.432 84.4848 22.8888 84.5379C22.3446 84.591 22.4473 84.9262 22.4473 84.9262C22.4473 84.9262 22.6818 86.1593 26.3803 88.2369C26.3803 88.2369 27.7131 88.9872 28.5534 88.9872C28.5534 88.9872 28.8249 89.0262 29.1602 88.6494C29.4995 88.2747 29.6001 88.3149 29.8335 88.3926C30.0659 88.4683 30.3761 88.6366 31.541 89.4806C32.7058 90.3237 34.9695 91.6195 35.7824 92.1664C36.0406 92.3396 36.1905 92.4617 36.3005 92.5688C34.5437 92.4281 32.8699 92.2195 31.9724 92.0855C31.4321 91.8735 30.8945 91.6585 30.3637 91.4282C30.1856 91.3191 30.121 91.2688 29.9262 91.1511C29.4193 90.8423 27.8942 90.2572 27.8942 90.2572C27.8942 90.2572 27.7576 90.2081 27.733 90.1986C20.2777 86.4258 13.9025 80.8244 9.19897 73.9729C9.26193 74.0245 9.30808 74.0727 9.37436 74.1246C10.8932 75.3168 10.9024 74.8425 10.9024 74.8425C10.9024 74.8425 10.9631 74.4482 10.6121 74.0154C10.2601 73.5816 9.69578 72.6651 9.83599 72.3287C9.97719 71.9962 10.1384 72.0254 10.1384 72.0254C10.1384 72.0254 10.269 71.9763 10.7229 72.3206C11.1759 72.6639 12.1915 73.3784 12.6945 73.9952C13.1975 74.607 13.1662 75.156 13.1662 75.156C13.1662 75.156 13.0655 75.7097 13.6097 76.3068C14.1519 76.9009 15.3093 77.9927 19.3549 78.6184C19.3794 78.6223 19.3919 78.6225 19.4164 78.6254C19.8989 79.3612 20.4556 80.0806 21.0665 80.6974Z" fill="#DCDCDD"/>
<path id="path4837_9" d="M21.6784 85.3414C21.803 85.4515 21.8951 85.6296 22.0275 85.7299C22.3903 86.0054 23.0247 86.4569 23.0786 87.0146C22.6746 87.2556 22.0079 86.932 21.6422 86.7421C20.6283 86.2139 19.7684 85.5332 18.9653 84.7954C18.7065 84.5564 18.2692 84.2662 18.3074 83.8619H18.4623C18.5545 83.9917 18.7035 84.0242 18.8104 84.1334C18.9016 84.2259 18.9271 84.3803 19.0055 84.4826C19.4193 85.0374 20.3832 85.724 20.9852 86.1175C21.3225 86.3418 21.6951 86.6359 22.2216 86.6634C22.151 86.2631 21.7029 86.0358 21.4461 85.8057C20.691 85.1328 19.99 84.2849 19.1193 83.7448C18.6849 83.4753 18.0613 83.5186 17.8769 83.0041H17.9936C18.0511 83.0435 18.146 83.0435 18.2564 83.0435H18.2643C18.2417 82.5614 17.8975 82.3942 17.6818 82.108C17.1994 81.4686 16.5042 80.4819 15.4325 80.4741C15.3884 80.5567 15.3746 80.5459 15.3541 80.6688C15.6119 80.9433 15.7472 81.3377 16.0522 81.565C16.3856 81.8129 16.8317 82.0401 16.9827 82.4591H16.866C16.6317 82.2201 16.3228 82.0401 16.0522 81.8345C15.6904 81.562 15.3864 81.1233 15.1207 80.7475C15.0168 80.598 14.7167 80.299 14.8118 80.0855C14.8716 79.9065 14.9971 79.9163 15.2384 79.931C15.5649 80.1543 16.162 80.2557 16.5179 80.478C17.2876 80.9502 18.5172 81.9702 18.8457 82.8507C18.9261 83.0661 18.7957 83.2727 18.8055 83.3573C19.1771 83.7045 19.7478 83.8796 20.1655 84.1727C20.6695 84.5298 21.2146 84.9282 21.6784 85.3414Z" fill="#373334"/>
</g>
<g id="1/4">
<path id="path4589" d="M14.8957 76.7213C14.1514 76.3475 13.7524 76.4145 13.8514 75.6373C13.9505 74.8828 13.1116 73.8313 13.1116 73.8313C13.1116 73.8313 11.9484 72.5656 10.9002 71.7786C9.85201 70.9897 9.40643 71.2245 9.40642 71.2245C9.40642 71.2245 8.93151 71.4775 9.35805 72.4986C9.78555 73.5216 10.2007 73.8799 10.2007 73.8799C10.2007 73.8799 10.4061 74.0949 10.2894 74.1529C10.1737 74.2119 9.81435 73.9405 9.51529 73.6857C9.38506 73.5773 8.7809 73.004 8.25133 72.5087C8.04584 72.1857 7.8246 71.8741 7.62641 71.546L7.6244 71.542L7.32806 71.0384L7.32605 71.0363C4.17821 65.6821 2.01416 59.6788 1.05664 53.2818C1.27928 53.5455 1.53128 53.8398 1.93758 54.2606C3.00047 55.3634 3.3366 54.6692 3.3366 54.6692C3.3366 54.6692 3.58521 53.9756 3.28419 52.7155C2.98317 51.4515 3.03595 50.7038 3.6027 50.7235C4.16944 50.7422 5.81639 51.0782 6.33018 52.4465C6.33018 52.4465 6.54345 53.0852 6.34832 53.9027C6.15222 54.7221 6.18898 55.4475 6.33018 56.1597C6.47236 56.8719 7.07422 57.5443 7.76549 58.0971C8.45774 58.65 10.4588 59.6073 12.4081 59.7312C14.3564 59.8552 14.9581 59.7535 14.9581 59.7535L14.9541 59.7575C14.9129 59.9532 14.867 60.1667 14.815 60.3723C14.6493 61.0422 14.633 61.7149 14.7929 62.9003C14.9507 64.0906 15.5878 66.5596 16.5124 67.2039C17.74 68.0607 18.5424 68.0465 19.3709 67.9826C20.1965 67.9167 20.7679 67.2808 20.7679 67.2808C20.7679 67.2808 21.0921 66.9459 21.4392 67.0482C21.7883 67.1515 22.759 67.6982 23.4571 69.0989C24.1562 70.4997 24.3105 72.0411 23.1467 72.3166C21.9828 72.5861 19.9797 71.4854 19.9797 71.4854C19.9797 71.4854 18.841 70.8487 17.9114 71.5501C16.9789 72.2515 16.9538 73.3273 17.4195 74.6504C17.6755 75.3764 18.1804 76.5575 18.8972 77.7871C17.7804 77.5697 15.7115 77.1306 14.8957 76.7213Z" fill="#DCDCDD"/>
<path id="Subtract_6" d="M4.9927 59.3789C5.76982 59.381 6.07218 59.7175 6.50637 60.041C7.32499 60.6519 8.05305 61.5817 8.60208 62.4541C8.82257 62.8072 9.11184 63.4981 9.41751 63.7393C9.63363 63.8935 10.3849 63.8962 10.5025 64.0879C10.615 64.2474 10.6556 64.5866 10.6997 64.7891H10.5025C10.2751 64.6406 9.87268 64.6499 9.60891 64.5547V64.6709C9.74301 64.8548 9.72692 65.1303 9.80423 65.3721C9.95814 65.8383 10.0682 66.3197 10.231 66.8125C10.5134 67.6584 10.7824 68.5428 11.1255 69.3809C11.2794 69.7546 11.5256 70.1503 11.5904 70.5898H11.5093V70.5508C11.0104 70.301 10.7064 69.581 10.4986 69.0332C10.3986 68.7677 10.3478 68.223 10.1109 68.0967C9.99687 68.2903 9.62731 68.5125 9.37551 68.332C8.71966 68.1487 7.9205 66.8268 7.66848 66.1904C7.56673 65.9318 7.57254 65.5368 7.66848 65.2959C7.73597 65.2556 7.809 65.2014 7.86184 65.1406C8.91446 65.0523 8.90251 65.6289 9.4927 66.0352V65.9189C9.31429 65.6787 9.11301 64.7545 9.06594 64.4004C8.64253 64.3522 8.2079 64.1543 7.86184 64.0117C7.38941 63.818 6.95529 63.7435 6.50344 63.5459C6.3037 63.4584 6.14561 63.3207 5.88235 63.2725V63.3105C5.98897 63.4756 5.96922 63.6892 6.03665 63.8955C6.219 64.4424 6.35133 64.9979 6.54153 65.5703C6.8346 66.4416 7.1174 67.3544 7.47415 68.2148C7.59471 68.5118 7.77358 68.8201 7.86087 69.1484H7.74661C7.63673 68.7817 7.27653 68.5258 7.12454 68.1758C6.81672 67.4548 6.6725 66.7446 6.38919 65.998C6.0382 65.0656 5.70071 64.019 5.45755 62.999C5.26938 62.9577 4.95991 62.8011 4.91458 62.6094C4.80967 62.4638 4.76617 62.1715 4.7593 61.9482H4.79837C4.91696 62.07 5.11718 62.1705 5.30227 62.2207V62.1426C4.85833 61.7839 4.54772 60.3491 4.72219 59.5732C4.81123 59.5085 4.90269 59.4437 4.9927 59.3789ZM8.56204 65.958C8.51693 65.9885 8.49697 65.9882 8.40676 65.9941C8.24699 66.1957 8.10309 66.1968 8.09817 66.5791C8.37762 66.9942 8.40114 67.6483 9.0679 67.6689C9.15902 67.5816 9.27464 67.5502 9.37747 67.4746C9.49405 67.3321 9.60855 67.1904 9.7261 67.0459C9.74179 66.7941 9.70582 66.6941 9.64895 66.4629C9.30018 66.2318 9.16363 65.962 8.56204 65.958ZM5.38235 60.1582C5.34117 60.1867 5.34459 60.1796 5.26516 60.1963C5.23969 60.2346 5.21349 60.2751 5.18801 60.3145C4.83116 60.759 5.48241 62.0216 5.57571 62.375C6.34921 62.7448 7.14267 63.0231 8.01907 63.3496C8.34755 63.4696 8.69612 63.6326 9.10598 63.6611V63.583C8.79038 63.3559 8.59996 62.8861 8.36868 62.5703C7.77653 61.7608 6.57744 60.3022 5.38235 60.1582Z" fill="#373334"/>
</g>
<g id="1/3">
<path id="path4583" d="M14.8756 40.5953C14.8579 41.4915 14.7253 43.3886 13.783 43.8332C13.783 43.8332 13.4637 44.0009 12.9303 43.5986C12.3969 43.1963 11.8211 43.1803 11.5877 43.1719C11.5166 43.1693 11.3709 43.1841 11.1926 43.2366C10.786 43.3563 10.2069 43.6748 9.92863 44.4601C9.52944 45.5868 9.56105 47.1052 9.64439 47.9993C9.72872 48.8945 10.5385 50.315 11.5151 50.315C11.5151 50.315 11.9551 50.4525 12.515 49.8741C13.0719 49.2976 13.3989 49.2474 13.6479 49.2552C13.898 49.264 14.3815 49.5213 14.6982 52.0563C14.9992 54.4604 15.2528 56.4494 15.2303 58.6371C14.9126 58.6755 14.3958 58.6916 14.0026 58.7221C13.0103 58.7919 11.5729 58.6658 9.78541 58.1356C7.99693 57.6024 6.8811 56.6256 6.72127 56.0383C6.60949 55.6321 6.75554 55.0575 6.75554 55.0575C6.75554 55.0575 7.08932 53.7626 6.87851 52.6953C6.66279 51.63 6.30849 50.7941 5.27992 50.1714C4.25233 49.5497 3.66923 49.6577 3.66923 49.6577C3.66923 49.6577 2.74792 49.5154 2.78224 51.0794C2.81852 52.6445 3.01407 53.3 3.01407 53.3C3.01407 53.3 3.1906 53.8511 2.90723 53.9229C2.62484 53.9937 2.18151 53.569 2.18151 53.569C2.18151 53.569 1.47847 52.9209 0.903444 52.2666L0.802696 51.4495V51.4455C0.596168 49.6037 0.490234 47.736 0.490234 45.8414C0.490234 42.9488 0.740395 40.1152 1.21393 37.3574L1.48205 36.7548C1.68245 36.7983 1.86506 36.868 1.86506 36.868C1.86506 36.868 2.97862 37.4706 3.47575 37.5738C3.97288 37.6771 4.33348 37.51 4.65706 37.2867C5.17379 36.9276 5.77788 36.1829 6.02987 35.4766C6.25441 34.8412 6.30403 33.1226 6.30403 33.1226L6.30806 33.1367C6.30806 33.1367 6.30675 32.7225 6.29597 32.6271C6.2842 32.5307 6.22399 32.0828 6.49756 31.8565C6.77014 31.6263 6.94673 31.5153 7.61839 31.4986C8.28514 31.4818 8.48722 31.8727 8.48723 31.8727C8.48723 31.8727 8.71502 32.191 8.71502 32.3985C8.71502 32.6051 8.64848 32.7343 8.6485 32.7343C8.6485 32.7343 8.28513 33.3494 8.15864 33.6524C8.03117 33.9544 7.53472 34.9541 7.67886 35.7941C7.82398 36.6322 9.13029 37.0238 9.13029 37.0238C9.13029 37.0238 10.1706 37.2694 11.6542 37.05L14.7193 36.5546C14.7968 37.6721 14.8883 39.8615 14.8756 40.5953Z" fill="#DCDCDD"/>
<path id="path4837_10" d="M5.57522 49.3382C3.68967 48.81 3.81616 45.07 3.8289 42.6432L3.90637 42.6422V42.6806C4.11424 42.8872 4.02991 43.6053 4.02403 44.0027C4.17209 44.2633 4.05835 44.95 4.13973 45.2884C4.37702 46.2927 4.51135 47.1898 5.14673 47.7791C5.32911 47.9473 5.79681 48.2325 6.11647 48.0122C6.85872 47.8155 7.10974 46.4058 6.7744 45.5992C6.38023 46.0202 6.2204 46.636 5.45559 46.6891C5.40166 46.6468 5.34381 46.6311 5.26145 46.6104C4.58195 45.549 5.12221 43.9004 5.14477 42.5252C4.60254 42.356 4.05835 42.1868 3.51514 42.0186C3.54063 41.7726 3.5671 41.5257 3.59358 41.2798C3.81125 41.3083 3.96912 41.4126 4.13777 41.4756C4.78099 41.7107 5.44873 41.8533 6.07626 42.0579C6.47828 42.1887 6.95972 42.1336 6.96854 41.63C6.75479 41.4175 6.61849 41.1647 6.31061 41.0447C5.92232 40.9808 5.53502 40.9149 5.14575 40.8509C4.55743 40.6542 4.02501 39.8328 4.25445 38.8658C4.32309 38.5717 4.43291 38.311 4.56332 38.0867H4.60254V38.1251C4.68784 38.194 4.69863 38.2195 4.71922 38.3592C4.43291 38.5786 4.50645 38.9976 4.56332 39.3714C4.73295 39.4983 4.84277 39.6783 5.06731 39.76C5.50756 39.8377 5.94684 39.9164 6.38709 39.9951C7.17543 40.3217 7.50097 41.2149 7.35781 42.3697H7.39703V42.4091C7.62941 42.4179 8.41775 42.6058 8.55993 42.7189C8.59224 42.7662 8.59038 42.7858 8.59915 42.8763C8.52365 42.9924 8.52267 43.2374 8.52365 43.4193C7.47841 43.3652 6.59888 42.7809 5.57522 42.6806C5.54384 43.5551 5.36048 44.4099 5.41931 45.3277C5.49187 45.3789 5.48599 45.4034 5.57522 45.4438C5.61836 45.4723 5.6115 45.4674 5.6919 45.4831C5.85172 45.2215 6.32826 44.4286 6.66066 44.3952C7.40978 45.3631 7.62647 47.602 6.85578 48.7529C6.64105 49.0716 6.26158 49.5281 5.57522 49.3382Z" fill="#373334"/>
</g>
<g id="1/2">
<path id="path4577" d="M9.80563 36.0914C7.14646 36.0777 8.55982 33.9983 8.55982 33.9983C8.55982 33.9983 9.1858 32.8985 9.29562 32.263C9.29562 32.263 9.51463 30.5451 7.90265 30.6573C6.28969 30.7674 5.97345 32.1781 5.97345 32.1781C5.97345 32.1781 5.86421 32.9659 5.88677 33.5473C5.90736 34.1316 5.88462 35.3658 5.15903 36.0672C4.43639 36.7685 3.65922 36.5525 3.65922 36.5525C3.65922 36.5525 2.35376 35.9805 2.0949 35.8467C1.89222 35.7413 1.70965 35.7306 1.53247 35.7577C2.64163 30.3623 4.62162 25.2881 7.32207 20.6889L7.57809 20.4421L7.29184 20.8689C7.42323 20.8462 7.53173 20.8143 7.53173 20.8143C7.53173 20.8143 7.92811 20.7486 8.62232 20.9316C9.52146 21.1716 10.6483 20.4442 10.6483 20.4442C10.6483 20.4442 11.5039 19.9291 11.8981 19.0851L12.2509 18.0962C12.2509 18.0962 12.5373 17.1402 13.3354 16.8362C13.3354 16.8362 13.6459 16.6682 14.1499 16.6623C14.6529 16.6574 14.5349 17.0101 14.5349 17.0101C14.5349 17.0101 14.48 17.2401 13.9604 17.9081C13.4417 18.574 13.3012 19.0851 13.3012 19.0851C13.3012 19.0851 12.9896 19.7944 13.4907 20.0255C13.4907 20.0255 13.7265 20.1648 14.4119 19.9365C15.0983 19.7073 17.3728 19.1064 18.7622 18.893L18.7723 18.8909L18.7702 18.8949C18.5094 19.6406 18.1772 20.8072 18.3086 21.4614C18.5086 22.4559 19.4435 22.4564 19.4435 22.4564C19.4435 22.4564 19.635 22.4572 19.9173 22.4038L20.016 22.4362C20.016 22.4362 20.1108 22.4622 20.1753 22.4665C20.2398 22.4707 20.3141 22.466 20.4011 22.4523C20.575 22.425 20.7946 22.3573 21.0845 22.2097C21.1362 22.1833 21.1676 22.1827 21.2094 22.1692C21.5438 22.4856 21.6368 23.4036 21.6368 23.595C21.6368 23.8547 21.6302 25.2933 20.6369 25.9976C20.6369 25.9976 20.2341 26.305 19.6693 26.305C19.1016 26.305 18.7339 26.1392 18.7339 26.1392C18.7339 26.1392 17.7699 25.8709 17.1757 26.2201C16.5834 26.5722 15.8749 27.3012 15.315 28.3557C14.7571 29.4102 14.2917 31.2916 14.3172 32.6796C14.3368 33.7725 14.4845 34.8067 14.5933 35.512C14.5933 35.512 12.3403 36.1062 9.80563 36.0914Z" fill="#DCDCDD"/>
<path id="Subtract_7" d="M8.4834 24.6222C8.70531 24.9842 7.96104 25.8094 7.86328 26.0617H7.97949C8.18374 25.9325 9.23091 25.9416 9.56641 25.9445H9.57129C9.78997 25.5985 10.1406 25.297 10.4248 25.0109C10.5296 24.9046 10.6382 24.6943 10.7754 24.7394C10.8126 24.7502 10.8505 24.7648 10.8906 24.7785C10.9582 25.3361 10.8058 25.9736 10.7754 26.5676C10.5264 26.7279 9.89967 27.4037 9.87988 27.7736C10.0338 27.8769 10.0604 27.9328 10.3467 27.9308C10.9084 28.2818 11.3836 27.025 11.666 26.8791C11.7061 26.8497 11.7019 26.8577 11.7812 26.841C11.8174 26.8831 11.7795 26.844 11.8203 26.8781C11.9164 27.7938 11.1084 28.1698 10.6182 28.6281C9.8661 28.6891 9.44841 28.2477 9.64746 27.382V27.0715C9.78116 26.6674 10.238 26.2542 10.5352 25.9855L10.54 25.9816V25.4396H10.4229C10.1679 25.8369 9.7385 26.1843 9.41504 26.5275C9.32399 26.6434 9.23363 26.7612 9.14355 26.8771H8.60059C8.45744 26.9666 8.1805 26.8729 7.97949 26.9162C7.45022 26.9811 6.91892 27.0466 6.38965 27.1115V27.0724C6.5474 26.858 6.54742 26.5557 6.66016 26.2941C6.88386 25.7697 7.73649 24.5061 8.44434 24.5041C8.45897 24.5433 8.4707 24.5821 8.4834 24.6222ZM12.9854 22.4426C13.3253 22.4367 13.6368 22.4637 13.8779 22.5217C13.9171 22.5954 13.9734 22.695 14.0342 22.7551C14.0535 23.9177 12.7759 25.4771 12.1709 26.1008C11.9249 26.3545 11.6489 26.767 11.2412 26.84V26.7619C11.5331 26.3643 11.6585 25.5787 11.8613 25.091C12.1005 24.5039 12.335 23.9019 12.5977 23.299C12.7163 23.0266 12.8991 22.7573 12.9854 22.4426ZM8.0957 25.2062C7.57422 25.2212 7.15471 25.712 7.04785 26.1408H7.28223C7.34202 26.0995 7.44197 26.0998 7.55273 26.1017C7.73413 25.8676 7.91431 25.6347 8.0957 25.3996V25.2062ZM12.9844 23.2639C12.7148 23.7585 12.5565 24.3059 12.3262 24.8576C12.2232 25.0995 12.0637 25.3399 12.0137 25.6369H12.0537C12.2233 25.3803 12.4993 25.1864 12.6738 24.9357C12.865 24.6614 12.9633 24.3723 13.1406 24.0793C13.2347 23.9219 13.4894 23.6129 13.4102 23.4191C13.3601 23.3227 13.4262 23.3912 13.333 23.34C13.2468 23.2781 13.1332 23.2669 12.9844 23.2639Z" fill="#373334"/>
</g>
<g id="1/1">
<path id="path4573" d="M22.9592 5.96786L23.6406 6.98513L24.0357 6.76469C24.0357 6.76469 24.3971 6.58568 24.8904 6.3865C24.6092 7.00974 24.1498 7.9599 23.4954 8.77495C23.4954 8.77495 23.1286 9.31928 22.8443 9.18549C22.5609 9.05368 22.2288 9.04251 21.9533 9.10055C21.6777 9.15957 20.8188 9.44531 20.0422 10.492C19.2676 11.5386 19.178 12.3247 19.5947 12.5588C19.9945 12.7835 20.5646 12.5071 20.9352 12.1968L21.8001 12.0472C21.7976 12.0617 21.7987 12.0874 21.796 12.0977C21.7705 12.1902 21.6438 13.4409 20.2015 15.9484C19.8397 16.5779 19.3729 17.5111 19.1532 17.9607L19.1553 17.9728C19.1549 17.9722 19.1452 17.9586 19.1452 17.9586C16.8037 18.3934 15.0595 18.9388 14.4643 19.166C13.8672 19.3923 13.8555 19.2469 13.8555 19.2469C13.6486 19.003 14.2829 18.2398 14.2829 18.2398C14.2829 18.2398 14.9249 17.3607 15.1779 16.5531C15.3684 15.9481 14.7799 15.8599 14.4744 15.8533C14.3725 15.8512 14.303 15.8574 14.303 15.8574C13.5598 15.9764 13.0249 16.3312 12.4101 17.0749C11.9336 17.6513 11.6441 18.4405 11.5352 18.8586C11.4656 19.1213 11.3457 19.3642 11.3457 19.3642C11.3457 19.3642 11.2563 19.5273 10.9043 19.6817C10.4964 19.8608 9.70077 20.072 9.70077 20.072C9.70077 20.072 9.17096 20.1162 8.78758 19.9244C8.66383 19.8634 8.4369 19.8788 8.23926 19.9082L8.27957 19.8779C8.27957 19.8779 8.32875 19.8438 8.39045 19.8031C8.44931 19.7642 8.52627 19.724 8.51341 19.7282L8.73718 19.6615L8.83595 19.4977C8.83595 19.4977 9.93385 17.6651 10.36 17.0445C10.4077 17.0143 10.4454 16.9901 10.5454 16.9313C10.6041 16.8967 10.6162 16.8929 10.6764 16.8625L10.8357 17.089L11.2449 16.731C11.2449 16.731 11.7955 16.2369 12.9725 14.648L12.9766 14.6399L13.3253 14.2192L12.9887 13.9947C12.9938 13.9713 12.9966 13.9528 13.0028 13.928C13.0348 13.7979 13.106 13.6175 13.0773 13.6732C13.0904 13.6477 13.0896 13.6496 13.0915 13.6469L13.1217 13.6105C13.1217 13.6105 14.8018 11.6344 16.1415 10.496C16.1442 10.4939 16.2835 10.3821 16.5588 10.3504L16.6273 10.3443L16.6918 10.316C16.6918 10.316 18.2144 9.67487 20.0241 8.08328L20.1551 7.97003L20.1853 7.80015C20.1853 7.80015 20.175 7.81292 20.2236 7.70712C20.2723 7.60131 20.3713 7.42052 20.5623 7.16512C20.8537 6.77583 21.8504 6.17334 22.4593 6.0346C22.7616 5.96552 22.8901 5.96545 22.9592 5.96786Z" fill="#DCDCDD"/>
<path id="path4837_11" d="M16.555 12.4389H16.4403C16.2854 12.555 15.2529 12.8836 15.0058 12.9052C14.994 12.8649 14.9803 12.8285 14.9666 12.7891C15.1715 12.5245 15.2774 12.2029 15.4705 11.9323C15.6215 11.7179 15.8333 11.5438 15.9755 11.3097C15.8941 11.2634 15.901 11.2811 15.8578 11.1916C16.1177 10.9949 16.4275 10.7824 16.8276 10.7263V10.7657C16.5923 10.9919 15.7578 12.0347 15.7029 12.3612H15.7814C16.0481 12.1537 16.7109 12.1763 16.9433 11.9717C17.0913 11.8418 17.1717 11.589 17.2924 11.4277C17.6483 10.9398 18.0532 10.4794 18.417 9.98759C18.6465 9.67477 19.0965 9.39245 19.2328 9.01275C19.1357 8.95667 19.1485 8.99012 19.1171 8.85732C19.3456 8.72354 19.825 8.64189 20.0074 8.50909H20.1623V8.58681C19.7897 8.83962 19.5025 9.31474 19.2318 9.67575C18.9906 9.99742 18.6553 10.2837 18.417 10.6093C17.9621 11.23 17.5434 11.8418 17.0982 12.4783C16.8256 12.8669 16.0638 13.7256 15.9745 14.1909H16.0128C16.1981 14.0561 16.6481 13.9971 16.8658 14.0365C16.8796 14.0994 16.8923 14.1644 16.905 14.2293C16.6305 14.6316 16.5452 15.2592 16.1697 15.5533C16.0402 15.6556 15.7402 15.6881 15.548 15.7107V15.6714C15.6598 15.5553 16.1726 14.6493 16.1314 14.5804C16.0883 14.5529 16.0942 14.5568 16.0138 14.5421C15.8794 14.6375 15.1685 14.8254 15.0823 14.7742C15.0401 14.7378 15.0803 14.7772 15.043 14.7349C15.2607 14.5588 15.3548 14.2401 15.5078 13.9961C15.7814 13.5613 16.3981 12.9121 16.555 12.4389Z" fill="#373334"/>
</g>
</g>
</svg>
